<mxfile host="drawio-plugin" modified="2022-06-01T18:48:13.173Z" agent="5.0 (Macintosh; Intel Mac OS X 12_2_1) AppleWebKit/537.36 (KHTML, like Gecko) Chrome/89.0.4389.114 Safari/537.36" etag="hV8n2HV2EvGmMjBFmh3A" version="15.5.4" type="embed"><diagram id="Yo6Zvny2ZRX3JAPKxXua" name="Page 2"><mxGraphModel dx="2647" dy="2061" grid="1" gridSize="10" guides="1" tooltips="1" connect="1" arrows="1" fold="1" page="1" pageScale="1" pageWidth="850" pageHeight="1100" math="0" shadow="0"><root><mxCell id="0"/><mxCell id="1" parent="0"/><mxCell id="8I9pphBKhg92I5GMk5e_-31" value="" style="graphMlID=e0;endArrow=none;strokeColor=#FF6392;strokeWidth=1.0;startArrow=diamond;startFill=0;endFill=1;exitX=1;exitY=0.25;exitDx=0;exitDy=0;fontColor=#5AA9E6;entryX=-0.008;entryY=-0.286;entryDx=0;entryDy=0;entryPerimeter=0;labelBackgroundColor=none;" parent="1" source="8I9pphBKhg92I5GMk5e_-50" target="8I9pphBKhg92I5GMk5e_-57" edge="1"><mxGeometry relative="1" as="geometry"/></mxCell><mxCell id="8I9pphBKhg92I5GMk5e_-32" value="" style="graphMlID=e1;endArrow=none;strokeColor=#FF6392;strokeWidth=1.0;startArrow=diamond;startFill=0;endFill=1;exitX=1;exitY=0.5;exitDx=0;exitDy=0;fontColor=#5AA9E6;entryX=0;entryY=0.5;entryDx=0;entryDy=0;labelBackgroundColor=none;" parent="1" source="8I9pphBKhg92I5GMk5e_-51" target="8I9pphBKhg92I5GMk5e_-61" edge="1"><mxGeometry relative="1" as="geometry"/></mxCell><mxCell id="8I9pphBKhg92I5GMk5e_-33" value="" style="graphMlID=e2;endArrow=none;strokeColor=#FF6392;strokeWidth=1.0;startArrow=diamond;startFill=0;endFill=1;fontColor=#5AA9E6;entryX=0;entryY=0.25;entryDx=0;entryDy=0;labelBackgroundColor=none;" parent="1" source="8I9pphBKhg92I5GMk5e_-60" target="8I9pphBKhg92I5GMk5e_-89" edge="1"><mxGeometry relative="1" as="geometry"><mxPoint x="648" y="240" as="sourcePoint"/></mxGeometry></mxCell><mxCell id="8I9pphBKhg92I5GMk5e_-34" value="" style="graphMlID=e3;endArrow=none;strokeColor=#FF6392;strokeWidth=1.0;startArrow=diamond;startFill=0;endFill=1;exitX=0.988;exitY=-0.077;exitDx=0;exitDy=0;exitPerimeter=0;fontColor=#5AA9E6;entryX=-0.023;entryY=0.105;entryDx=0;entryDy=0;entryPerimeter=0;labelBackgroundColor=none;" parent="1" source="8I9pphBKhg92I5GMk5e_-53" target="8I9pphBKhg92I5GMk5e_-64" edge="1"><mxGeometry relative="1" as="geometry"><mxPoint x="840" y="580" as="targetPoint"/></mxGeometry></mxCell><mxCell id="8I9pphBKhg92I5GMk5e_-35" value="" style="graphMlID=e4;endArrow=none;strokeColor=#FF6392;strokeWidth=1.0;startArrow=diamond;startFill=0;endFill=1;exitX=0.975;exitY=1;exitDx=0;exitDy=0;exitPerimeter=0;fontColor=#5AA9E6;entryX=0;entryY=0.5;entryDx=0;entryDy=0;labelBackgroundColor=none;" parent="1" source="8I9pphBKhg92I5GMk5e_-53" target="8I9pphBKhg92I5GMk5e_-71" edge="1"><mxGeometry relative="1" as="geometry"/></mxCell><mxCell id="8I9pphBKhg92I5GMk5e_-36" value="" style="graphMlID=e5;endArrow=none;strokeColor=#FF6392;strokeWidth=1.0;startArrow=diamond;startFill=0;endFill=1;fontColor=#5AA9E6;exitX=1.007;exitY=0.165;exitDx=0;exitDy=0;exitPerimeter=0;labelBackgroundColor=none;" parent="1" source="8I9pphBKhg92I5GMk5e_-55" target="8I9pphBKhg92I5GMk5e_-82" edge="1"><mxGeometry relative="1" as="geometry"/></mxCell><mxCell id="8I9pphBKhg92I5GMk5e_-37" value="" style="graphMlID=e6;endArrow=none;strokeColor=#FF6392;strokeWidth=1.0;startArrow=diamond;startFill=0;endFill=1;fontColor=#5AA9E6;labelBackgroundColor=none;" parent="1" source="8I9pphBKhg92I5GMk5e_-64" target="8I9pphBKhg92I5GMk5e_-97" edge="1"><mxGeometry relative="1" as="geometry"/></mxCell><mxCell id="8I9pphBKhg92I5GMk5e_-38" value="" style="graphMlID=e7;endArrow=none;strokeColor=#FF6392;strokeWidth=1.0;startArrow=none;startFill=1;endFill=1;fontColor=#5AA9E6;entryX=0;entryY=0.25;entryDx=0;entryDy=0;exitX=1;exitY=0.5;exitDx=0;exitDy=0;labelBackgroundColor=none;" parent="1" source="8I9pphBKhg92I5GMk5e_-67" target="8I9pphBKhg92I5GMk5e_-72" edge="1"><mxGeometry relative="1" as="geometry"/></mxCell><mxCell id="8I9pphBKhg92I5GMk5e_-39" value="" style="graphMlID=e8;endArrow=none;strokeColor=#FF6392;strokeWidth=1.0;startArrow=diamond;startFill=0;endFill=1;fontColor=#5AA9E6;exitX=1;exitY=0.5;exitDx=0;exitDy=0;entryX=0;entryY=0.5;entryDx=0;entryDy=0;labelBackgroundColor=none;" parent="1" source="8I9pphBKhg92I5GMk5e_-57" target="8I9pphBKhg92I5GMk5e_-86" edge="1"><mxGeometry relative="1" as="geometry"><mxPoint x="710" y="80" as="sourcePoint"/></mxGeometry></mxCell><mxCell id="8I9pphBKhg92I5GMk5e_-40" value="" style="graphMlID=e9;endArrow=none;strokeColor=#FF6392;strokeWidth=1.0;startArrow=diamond;startFill=0;endFill=1;fontColor=#5AA9E6;entryX=0.428;entryY=0.978;entryDx=0;entryDy=0;entryPerimeter=0;exitX=0.5;exitY=0;exitDx=0;exitDy=0;labelBackgroundColor=none;" parent="1" source="8I9pphBKhg92I5GMk5e_-85" target="8I9pphBKhg92I5GMk5e_-107" edge="1"><mxGeometry relative="1" as="geometry"><mxPoint x="1810" y="570" as="sourcePoint"/></mxGeometry></mxCell><mxCell id="8I9pphBKhg92I5GMk5e_-42" value="" style="graphMlID=e11;endArrow=none;strokeColor=#FF6392;strokeWidth=1.0;startArrow=diamond;startFill=0;endFill=1;fontColor=#5AA9E6;exitX=1;exitY=0.5;exitDx=0;exitDy=0;entryX=0.006;entryY=0.178;entryDx=0;entryDy=0;entryPerimeter=0;labelBackgroundColor=none;" parent="1" source="8I9pphBKhg92I5GMk5e_-97" target="8I9pphBKhg92I5GMk5e_-109" edge="1"><mxGeometry relative="1" as="geometry"/></mxCell><mxCell id="8I9pphBKhg92I5GMk5e_-44" value="" style="graphMlID=e13;endArrow=none;strokeColor=#FF6392;strokeWidth=1.0;startArrow=none;startFill=1;endFill=1;fontColor=#5AA9E6;entryX=0.528;entryY=0.978;entryDx=0;entryDy=0;entryPerimeter=0;exitX=0.57;exitY=-0.037;exitDx=0;exitDy=0;exitPerimeter=0;labelBackgroundColor=none;" parent="1" source="8I9pphBKhg92I5GMk5e_-60" target="8I9pphBKhg92I5GMk5e_-57" edge="1"><mxGeometry relative="1" as="geometry"/></mxCell><mxCell id="8I9pphBKhg92I5GMk5e_-45" value="" style="graphMlID=e14;endArrow=none;strokeColor=#FF6392;strokeWidth=1.0;startArrow=none;startFill=1;endFill=1;fontColor=#5AA9E6;exitX=0.5;exitY=0;exitDx=0;exitDy=0;labelBackgroundColor=none;" parent="1" source="8I9pphBKhg92I5GMk5e_-96" target="8I9pphBKhg92I5GMk5e_-88" edge="1"><mxGeometry relative="1" as="geometry"><mxPoint x="1177.6990312711996" y="279.6614280464578" as="targetPoint"/></mxGeometry></mxCell><mxCell id="8I9pphBKhg92I5GMk5e_-50" value="VirtualWorld" style="swimlane;fontStyle=1;align=center;verticalAlign=top;childLayout=stackLayout;horizontal=1;startSize=20;horizontalStack=0;resizeParent=1;resizeParentMax=0;resizeLast=0;collapsible=1;marginBottom=0;hachureGap=4;pointerEvents=0;fillColor=#FFE45E;strokeColor=#FF6392;fontColor=#5AA9E6;labelBackgroundColor=none;" parent="1" vertex="1"><mxGeometry x="20" y="150" width="300" height="754" as="geometry"/></mxCell><mxCell id="8I9pphBKhg92I5GMk5e_-51" value="-TIMER_ACTION_PERIOD: int         &lt;&lt;static&gt;&gt;&#10;-VIEW_WIDTH: int                          &lt;&lt;static&gt;&gt;&#10;-VIEW_HEIGHT: int                         &lt;&lt;static&gt;&gt;&#10;-TILE_WIDTH: int                           &lt;&lt;static&gt;&gt;&#10;-TILE_HEIGHT: int                          &lt;&lt;static&gt;&gt;&#10;-WORLD_WIDTH_SCALE: int           &lt;&lt;static&gt;&gt;&#10;-WORLD_HEIGHT_SCALE: int          &lt;&lt;static&gt;&gt;&#10;-VIEW_COLS: int                             &lt;&lt;static&gt;&gt;&#10;-VIEW_ROWS: int                            &lt;&lt;static&gt;&gt;&#10;-WORLD_COLS: int                         &lt;&lt;static&gt;&gt;&#10;-WORLD_ROWS: int                        &lt;&lt;static&gt;&gt;&#10;-IMAGE_LIST_FILE_NAME: String    &lt;&lt;static&gt;&gt;&#10;-DEFAULT_IMAGE_NAME: String    &lt;&lt;static&gt;&gt;&#10;-DEFAULT_IMAGE_COLOR: int       &lt;&lt;static&gt;&gt;&#10;-LOAD_FILE_NAME: String            &lt;&lt;static&gt;&gt;&#10;-FAST_FLAG: String                      &lt;&lt;static&gt;&gt;&#10;-FASTER_FLAG: String                  &lt;&lt;static&gt;&gt;&#10;-FASTEST_FLAG: String                &lt;&lt;static&gt;&gt;&#10;-FAST_SCALE: double                  &lt;&lt;static&gt;&gt;&#10;-FASTER_SCALE: double              &lt;&lt;static&gt;&gt;&#10;-FASTEST_SCALE: double            &lt;&lt;static&gt;&gt;&#10;-timeScale: double&#10;-imageStore: ImageStore&#10;-world: WorldModel&#10;-view: WorldView&#10;-scheduler: EventScheduler" style="text;strokeColor=none;fillColor=none;align=left;verticalAlign=top;spacingLeft=4;spacingRight=4;overflow=hidden;rotatable=0;points=[[0,0.5],[1,0.5]];portConstraint=eastwest;fontColor=#5AA9E6;labelBackgroundColor=none;" parent="8I9pphBKhg92I5GMk5e_-50" vertex="1"><mxGeometry y="20" width="300" height="380" as="geometry"/></mxCell><mxCell id="8I9pphBKhg92I5GMk5e_-90" value="-row: int&#10;-col: int&#10;-numRows: int&#10;-numCols: int        &#10;   &#10;    " style="text;strokeColor=none;fillColor=none;align=left;verticalAlign=top;spacingLeft=4;spacingRight=4;overflow=hidden;rotatable=0;points=[[0,0.5],[1,0.5]];portConstraint=eastwest;fontColor=#5AA9E6;labelBackgroundColor=none;" parent="8I9pphBKhg92I5GMk5e_-50" vertex="1"><mxGeometry y="400" width="300" height="144" as="geometry"/></mxCell><mxCell id="8I9pphBKhg92I5GMk5e_-52" value="" style="line;strokeWidth=1;fillColor=none;align=left;verticalAlign=middle;spacingTop=-1;spacingLeft=3;spacingRight=3;rotatable=0;labelPosition=right;points=[];portConstraint=eastwest;strokeColor=#FF6392;fontColor=#5AA9E6;labelBackgroundColor=none;" parent="8I9pphBKhg92I5GMk5e_-50" vertex="1"><mxGeometry y="544" width="300" height="8" as="geometry"/></mxCell><mxCell id="8I9pphBKhg92I5GMk5e_-53" value="+settings()&#10;+setup()&#10;+draw()&#10;+mousePressed()&#10;-mouseToPoint()&#10;+keyPressed()&#10;+createDefaultBackground()         &lt;&lt;static&gt;&gt;&#10;+createImageColored()                 &lt;&lt;static&gt;&gt;&#10;+loadWorld()                                 &lt;&lt;static&gt;&gt;&#10;+loadWorld()                                 &lt;&lt;static&gt;&gt;&#10;+scheduleActions()                       &lt;&lt;static&gt;&gt;&#10;+parseCommandLine()                  &lt;&lt;static&gt;&gt;&#10;+main()                                         &lt;&lt;static&gt;&gt;" style="text;strokeColor=none;fillColor=none;align=left;verticalAlign=top;spacingLeft=4;spacingRight=4;overflow=hidden;rotatable=0;points=[[0,0.5],[1,0.5]];portConstraint=eastwest;fontColor=#5AA9E6;labelBackgroundColor=none;" parent="8I9pphBKhg92I5GMk5e_-50" vertex="1"><mxGeometry y="552" width="300" height="202" as="geometry"/></mxCell><mxCell id="8I9pphBKhg92I5GMk5e_-54" value="WorldModel" style="swimlane;fontStyle=1;align=center;verticalAlign=top;childLayout=stackLayout;horizontal=1;startSize=26;horizontalStack=0;resizeParent=1;resizeParentMax=0;resizeLast=0;collapsible=1;marginBottom=0;hachureGap=4;pointerEvents=0;sketch=0;fontColor=#5AA9E6;strokeColor=#FF6392;fillColor=#FFE45E;labelBackgroundColor=none;" parent="1" vertex="1"><mxGeometry x="440" y="-220" width="280" height="478" as="geometry"/></mxCell><mxCell id="8I9pphBKhg92I5GMk5e_-55" value="-numRows: int&#10;-numCols: int&#10;-background: Background[][]&#10;-occupancy: Entity[][]&#10;-entities: Set&lt;Entity&gt;&#10;&#10;   &#10;                       &#10;        &#10;                                                                                            " style="text;strokeColor=none;fillColor=none;align=left;verticalAlign=top;spacingLeft=4;spacingRight=4;overflow=hidden;rotatable=0;points=[[0,0.5],[1,0.5]];portConstraint=eastwest;fontColor=#5AA9E6;labelBackgroundColor=none;" parent="8I9pphBKhg92I5GMk5e_-54" vertex="1"><mxGeometry y="26" width="280" height="114" as="geometry"/></mxCell><mxCell id="8I9pphBKhg92I5GMk5e_-57" value="+findNearest(): Optional&lt;Entity&gt;&#10;+nearestEntity(): Optional&lt;Entity&gt; &#10;+removeEntity()&#10;+removeEntityAt()&#10;+withinBounds(): boolean&#10;+isOccupied(): boolean &#10;+getOccupancyCell(): Entity       &#10;+setOccupancyCell() &#10;+tryAddEntity()      &#10;+addEntity()&#10;+getOccupant(): Optional&lt;Entity&gt;     &#10;+moveEntity() &#10;+getBackgroundCell(): Background &#10;+setBackgroundCell()   &#10;+setBackground()&#10;+getBackgroundImage(): Optional&lt;PImage&gt;&#10;+distanceSquared(): int                      &lt;&lt;static&gt;&gt;&#10;+getNumRows()&#10;+getNumCols()&#10;+getEntities()&#10;        &#10;      " style="text;strokeColor=none;fillColor=none;align=left;verticalAlign=top;spacingLeft=4;spacingRight=4;overflow=hidden;rotatable=0;points=[[0,0.5],[1,0.5]];portConstraint=eastwest;fontColor=#5AA9E6;labelBackgroundColor=none;" parent="8I9pphBKhg92I5GMk5e_-54" vertex="1"><mxGeometry y="140" width="280" height="330" as="geometry"/></mxCell><mxCell id="8I9pphBKhg92I5GMk5e_-56" value="" style="line;strokeWidth=1;fillColor=none;align=left;verticalAlign=middle;spacingTop=-1;spacingLeft=3;spacingRight=3;rotatable=0;labelPosition=right;points=[];portConstraint=eastwest;strokeColor=#FF6392;fontColor=#5AA9E6;labelBackgroundColor=none;" parent="8I9pphBKhg92I5GMk5e_-54" vertex="1"><mxGeometry y="470" width="280" height="8" as="geometry"/></mxCell><mxCell id="8I9pphBKhg92I5GMk5e_-60" value="WorldView" style="swimlane;fontStyle=1;align=center;verticalAlign=top;childLayout=stackLayout;horizontal=1;startSize=26;horizontalStack=0;resizeParent=1;resizeParentMax=0;resizeLast=0;collapsible=1;marginBottom=0;hachureGap=4;pointerEvents=0;sketch=0;fontColor=#5AA9E6;strokeColor=#FF6392;fillColor=#FFE45E;labelBackgroundColor=none;" parent="1" vertex="1"><mxGeometry x="520" y="321" width="280" height="240" as="geometry"/></mxCell><mxCell id="8I9pphBKhg92I5GMk5e_-61" value="-screen: PApplet&#10;-world: WorldModel&#10;-tileWidth: int&#10;-tileHeight: int&#10;-viewport: Viewport&#10;&#10;           &#10;                              &#10;        &#10;                              " style="text;strokeColor=none;fillColor=none;align=left;verticalAlign=top;spacingLeft=4;spacingRight=4;overflow=hidden;rotatable=0;points=[[0,0.5],[1,0.5]];portConstraint=eastwest;fontColor=#5AA9E6;labelBackgroundColor=none;" parent="8I9pphBKhg92I5GMk5e_-60" vertex="1"><mxGeometry y="26" width="280" height="94" as="geometry"/></mxCell><mxCell id="8I9pphBKhg92I5GMk5e_-62" value="" style="line;strokeWidth=1;fillColor=none;align=left;verticalAlign=middle;spacingTop=-1;spacingLeft=3;spacingRight=3;rotatable=0;labelPosition=right;points=[];portConstraint=eastwest;strokeColor=#FF6392;fontColor=#5AA9E6;labelBackgroundColor=none;" parent="8I9pphBKhg92I5GMk5e_-60" vertex="1"><mxGeometry y="120" width="280" height="8" as="geometry"/></mxCell><mxCell id="8I9pphBKhg92I5GMk5e_-63" value="+shiftView() &#10;+worldToViewport(): Point &#10;+drawBackground()&#10;+drawEntities()               &#10;+drawViewport() &#10;+clamp()                                      &lt;&lt;static&gt;&gt;&#10;                                                  " style="text;strokeColor=none;fillColor=none;align=left;verticalAlign=top;spacingLeft=4;spacingRight=4;overflow=hidden;rotatable=0;points=[[0,0.5],[1,0.5]];portConstraint=eastwest;fontColor=#5AA9E6;labelBackgroundColor=none;" parent="8I9pphBKhg92I5GMk5e_-60" vertex="1"><mxGeometry y="128" width="280" height="112" as="geometry"/></mxCell><mxCell id="8I9pphBKhg92I5GMk5e_-64" value="EventScheduler" style="swimlane;fontStyle=1;align=center;verticalAlign=top;childLayout=stackLayout;horizontal=1;startSize=26;horizontalStack=0;resizeParent=1;resizeParentMax=0;resizeLast=0;collapsible=1;marginBottom=0;hachureGap=4;pointerEvents=0;sketch=0;fontColor=#5AA9E6;strokeColor=#FF6392;fillColor=#FFE45E;labelBackgroundColor=none;" parent="1" vertex="1"><mxGeometry x="770" y="626" width="280" height="336" as="geometry"/></mxCell><mxCell id="8I9pphBKhg92I5GMk5e_-65" value="-eventQueue: PriorityQueue&lt;Event&gt;&#10;-pendingEvents: Map&lt;Entity, List&lt;Event&gt;&gt;&#10;-timeScale: double&#10;&#10;&#10;&#10;&#10;                    &#10;" style="text;strokeColor=none;fillColor=none;align=left;verticalAlign=top;spacingLeft=4;spacingRight=4;overflow=hidden;rotatable=0;points=[[0,0.5],[1,0.5]];portConstraint=eastwest;fontColor=#5AA9E6;labelBackgroundColor=none;" parent="8I9pphBKhg92I5GMk5e_-64" vertex="1"><mxGeometry y="26" width="280" height="184" as="geometry"/></mxCell><mxCell id="8I9pphBKhg92I5GMk5e_-66" value="" style="line;strokeWidth=1;fillColor=none;align=left;verticalAlign=middle;spacingTop=-1;spacingLeft=3;spacingRight=3;rotatable=0;labelPosition=right;points=[];portConstraint=eastwest;strokeColor=#FF6392;fontColor=#5AA9E6;labelBackgroundColor=none;" parent="8I9pphBKhg92I5GMk5e_-64" vertex="1"><mxGeometry y="210" width="280" height="30" as="geometry"/></mxCell><mxCell id="8I9pphBKhg92I5GMk5e_-67" value="+scheduleEvent()&#10;+unscheduleAllEvents()             &#10;+removePendingEvent()                 &#10;+updateOnTime()                 " style="text;strokeColor=none;fillColor=none;align=left;verticalAlign=top;spacingLeft=4;spacingRight=4;overflow=hidden;rotatable=0;points=[[0,0.5],[1,0.5]];portConstraint=eastwest;fontColor=#5AA9E6;labelBackgroundColor=none;" parent="8I9pphBKhg92I5GMk5e_-64" vertex="1"><mxGeometry y="240" width="280" height="96" as="geometry"/></mxCell><mxCell id="8I9pphBKhg92I5GMk5e_-68" value="ImageStore" style="swimlane;fontStyle=1;align=center;verticalAlign=top;childLayout=stackLayout;horizontal=1;startSize=26;horizontalStack=0;resizeParent=1;resizeParentMax=0;resizeLast=0;collapsible=1;marginBottom=0;hachureGap=4;pointerEvents=0;sketch=0;fontColor=#5AA9E6;strokeColor=#FF6392;fillColor=#FFE45E;labelBackgroundColor=none;" parent="1" vertex="1"><mxGeometry x="425" y="673" width="280" height="132" as="geometry"/></mxCell><mxCell id="8I9pphBKhg92I5GMk5e_-69" value="-images: Map&lt;String, List&lt;PImage&gt;&gt;&#10;-defaultImages: List&lt;PImage&gt;" style="text;strokeColor=none;fillColor=none;align=left;verticalAlign=top;spacingLeft=4;spacingRight=4;overflow=hidden;rotatable=0;points=[[0,0.5],[1,0.5]];portConstraint=eastwest;fontColor=#5AA9E6;labelBackgroundColor=none;" parent="8I9pphBKhg92I5GMk5e_-68" vertex="1"><mxGeometry y="26" width="280" height="54" as="geometry"/></mxCell><mxCell id="8I9pphBKhg92I5GMk5e_-70" value="" style="line;strokeWidth=1;fillColor=none;align=left;verticalAlign=middle;spacingTop=-1;spacingLeft=3;spacingRight=3;rotatable=0;labelPosition=right;points=[];portConstraint=eastwest;strokeColor=#FF6392;fontColor=#5AA9E6;labelBackgroundColor=none;" parent="8I9pphBKhg92I5GMk5e_-68" vertex="1"><mxGeometry y="80" width="280" height="8" as="geometry"/></mxCell><mxCell id="8I9pphBKhg92I5GMk5e_-71" value="+getImageList(): List&lt;PImage&gt;  &#10;+getImages(): Map&lt;String, List&lt;PImage&gt;&gt;      " style="text;strokeColor=none;fillColor=none;align=left;verticalAlign=top;spacingLeft=4;spacingRight=4;overflow=hidden;rotatable=0;points=[[0,0.5],[1,0.5]];portConstraint=eastwest;fontColor=#5AA9E6;labelBackgroundColor=none;" parent="8I9pphBKhg92I5GMk5e_-68" vertex="1"><mxGeometry y="88" width="280" height="44" as="geometry"/></mxCell><mxCell id="8I9pphBKhg92I5GMk5e_-72" value="EventComparator" style="swimlane;fontStyle=1;align=center;verticalAlign=top;childLayout=stackLayout;horizontal=1;startSize=26;horizontalStack=0;resizeParent=1;resizeParentMax=0;resizeLast=0;collapsible=1;marginBottom=0;hachureGap=4;pointerEvents=0;sketch=0;fontColor=#5AA9E6;strokeColor=#FF6392;fillColor=#FFE45E;labelBackgroundColor=none;" parent="1" vertex="1"><mxGeometry x="1082.5" y="950" width="240" height="60" as="geometry"/></mxCell><mxCell id="8I9pphBKhg92I5GMk5e_-74" value="" style="line;strokeWidth=1;fillColor=none;align=left;verticalAlign=middle;spacingTop=-1;spacingLeft=3;spacingRight=3;rotatable=0;labelPosition=right;points=[];portConstraint=eastwest;strokeColor=#FF6392;fontColor=#5AA9E6;labelBackgroundColor=none;" parent="8I9pphBKhg92I5GMk5e_-72" vertex="1"><mxGeometry y="26" width="240" height="8" as="geometry"/></mxCell><mxCell id="8I9pphBKhg92I5GMk5e_-75" value="+compare()" style="text;strokeColor=none;fillColor=none;align=left;verticalAlign=top;spacingLeft=4;spacingRight=4;overflow=hidden;rotatable=0;points=[[0,0.5],[1,0.5]];portConstraint=eastwest;fontColor=#5AA9E6;labelBackgroundColor=none;" parent="8I9pphBKhg92I5GMk5e_-72" vertex="1"><mxGeometry y="34" width="240" height="26" as="geometry"/></mxCell><mxCell id="8I9pphBKhg92I5GMk5e_-77" value="Util" style="swimlane;fontStyle=1;align=center;verticalAlign=top;childLayout=stackLayout;horizontal=1;startSize=26;horizontalStack=0;resizeParent=1;resizeParentMax=0;resizeLast=0;collapsible=1;marginBottom=0;hachureGap=4;pointerEvents=0;sketch=0;fontColor=#5AA9E6;strokeColor=#FF6392;fillColor=#FFE45E;labelBackgroundColor=none;" parent="1" vertex="1"><mxGeometry x="370" y="870" width="360" height="690" as="geometry"/></mxCell><mxCell id="8I9pphBKhg92I5GMk5e_-78" value="**below all are static and final&#10;  +String SAPLING_KEY &#10;  +int SAPLING_HEALTH_LIMIT &#10;   +int SAPLING_ACTION_ANIMATION_PERIOD&#10;&#10;    &#10;&#10;   +String STUMP_KEY &#10;&#10;    +String TREE_KEY &#10;&#10;   + int TREE_ANIMATION_MAX &#10;    +int TREE_ANIMATION_MIN &#10;    + int TREE_ACTION_MAX &#10;    +int TREE_ACTION_MIN &#10;    +int TREE_HEALTH_MAX&#10;    +int TREE_HEALTH_MIN " style="text;strokeColor=none;fillColor=none;align=left;verticalAlign=top;spacingLeft=4;spacingRight=4;overflow=hidden;rotatable=0;points=[[0,0.5],[1,0.5]];portConstraint=eastwest;fontColor=#5AA9E6;labelBackgroundColor=none;" parent="8I9pphBKhg92I5GMk5e_-77" vertex="1"><mxGeometry y="26" width="360" height="324" as="geometry"/></mxCell><mxCell id="8I9pphBKhg92I5GMk5e_-79" value="" style="line;strokeWidth=1;fillColor=none;align=left;verticalAlign=middle;spacingTop=-1;spacingLeft=3;spacingRight=3;rotatable=0;labelPosition=right;points=[];portConstraint=eastwest;strokeColor=#FF6392;fontColor=#5AA9E6;labelBackgroundColor=none;" parent="8I9pphBKhg92I5GMk5e_-77" vertex="1"><mxGeometry y="350" width="360" height="8" as="geometry"/></mxCell><mxCell id="8I9pphBKhg92I5GMk5e_-80" value="&#10;&#10;+getNumFromRange: int                     &lt;&lt;static&gt;&gt;&#10;&#10;&#10;&#10;&#10;&#10;" style="text;strokeColor=none;fillColor=none;align=left;verticalAlign=top;spacingLeft=4;spacingRight=4;overflow=hidden;rotatable=0;points=[[0,0.5],[1,0.5]];portConstraint=eastwest;fontColor=#5AA9E6;labelBackgroundColor=none;" parent="8I9pphBKhg92I5GMk5e_-77" vertex="1"><mxGeometry y="358" width="360" height="332" as="geometry"/></mxCell><mxCell id="8I9pphBKhg92I5GMk5e_-81" value="Background" style="swimlane;fontStyle=1;align=center;verticalAlign=top;childLayout=stackLayout;horizontal=1;startSize=26;horizontalStack=0;resizeParent=1;resizeParentMax=0;resizeLast=0;collapsible=1;marginBottom=0;hachureGap=4;pointerEvents=0;sketch=0;fontColor=#5AA9E6;strokeColor=#FF6392;fillColor=#FFE45E;labelBackgroundColor=none;" parent="1" vertex="1"><mxGeometry x="940" y="-120" width="250" height="144" as="geometry"/></mxCell><mxCell id="8I9pphBKhg92I5GMk5e_-82" value="-id: String&#10;-images: List&lt;PImage&gt;&#10;-imageIndex: int&#10;" style="text;strokeColor=none;fillColor=none;align=left;verticalAlign=top;spacingLeft=4;spacingRight=4;overflow=hidden;rotatable=0;points=[[0,0.5],[1,0.5]];portConstraint=eastwest;fontColor=#5AA9E6;labelBackgroundColor=none;" parent="8I9pphBKhg92I5GMk5e_-81" vertex="1"><mxGeometry y="26" width="250" height="84" as="geometry"/></mxCell><mxCell id="8I9pphBKhg92I5GMk5e_-83" value="" style="line;strokeWidth=1;fillColor=none;align=left;verticalAlign=middle;spacingTop=-1;spacingLeft=3;spacingRight=3;rotatable=0;labelPosition=right;points=[];portConstraint=eastwest;fontColor=#5AA9E6;labelBackgroundColor=none;strokeColor=#FF6392;" parent="8I9pphBKhg92I5GMk5e_-81" vertex="1"><mxGeometry y="110" width="250" height="8" as="geometry"/></mxCell><mxCell id="8I9pphBKhg92I5GMk5e_-84" value="+getCurrentImage(): PImage  " style="text;strokeColor=none;fillColor=none;align=left;verticalAlign=top;spacingLeft=4;spacingRight=4;overflow=hidden;rotatable=0;points=[[0,0.5],[1,0.5]];portConstraint=eastwest;fontColor=#5AA9E6;labelBackgroundColor=none;" parent="8I9pphBKhg92I5GMk5e_-81" vertex="1"><mxGeometry y="118" width="250" height="26" as="geometry"/></mxCell><mxCell id="8I9pphBKhg92I5GMk5e_-85" value="Entity &lt;&lt;Interface&gt;&gt;" style="swimlane;fontStyle=1;align=center;verticalAlign=top;childLayout=stackLayout;horizontal=1;startSize=26;horizontalStack=0;resizeParent=1;resizeParentMax=0;resizeLast=0;collapsible=1;marginBottom=0;hachureGap=4;pointerEvents=0;sketch=0;fontColor=#5AA9E6;strokeColor=#FF6392;fillColor=#FFE45E;labelBackgroundColor=none;" parent="1" vertex="1"><mxGeometry x="2250" y="160" width="250" height="310" as="geometry"/></mxCell><mxCell id="8I9pphBKhg92I5GMk5e_-86" value="&#10;&#10;&#10;     " style="text;strokeColor=#FF6392;fillColor=#FFE45E;align=left;verticalAlign=top;spacingLeft=4;spacingRight=4;overflow=hidden;rotatable=0;points=[[0,0.5],[1,0.5]];portConstraint=eastwest;fontStyle=0;fontColor=#5AA9E6;labelBackgroundColor=none;" parent="8I9pphBKhg92I5GMk5e_-85" vertex="1"><mxGeometry y="26" width="250" height="4" as="geometry"/></mxCell><mxCell id="8I9pphBKhg92I5GMk5e_-87" value="" style="line;strokeWidth=1;fillColor=none;align=left;verticalAlign=middle;spacingTop=-1;spacingLeft=3;spacingRight=3;rotatable=0;labelPosition=right;points=[];portConstraint=eastwest;fontColor=#5AA9E6;labelBackgroundColor=none;strokeColor=#FF6392;" parent="8I9pphBKhg92I5GMk5e_-85" vertex="1"><mxGeometry y="30" width="250" height="8" as="geometry"/></mxCell><mxCell id="8I9pphBKhg92I5GMk5e_-88" value="+public String getId();&#10;+public Point getPosition();&#10;+public void setPosition();  &#10;+getImage()&#10;       " style="text;strokeColor=none;fillColor=none;align=left;verticalAlign=top;spacingLeft=4;spacingRight=4;overflow=hidden;rotatable=0;points=[[0,0.5],[1,0.5]];portConstraint=eastwest;fontColor=#5AA9E6;labelBackgroundColor=none;" parent="8I9pphBKhg92I5GMk5e_-85" vertex="1"><mxGeometry y="38" width="250" height="272" as="geometry"/></mxCell><mxCell id="8I9pphBKhg92I5GMk5e_-89" value="Viewport" style="swimlane;fontStyle=1;align=center;verticalAlign=top;childLayout=stackLayout;horizontal=1;startSize=26;horizontalStack=0;resizeParent=1;resizeParentMax=0;resizeLast=0;collapsible=1;marginBottom=0;hachureGap=4;pointerEvents=0;sketch=0;fontColor=#5AA9E6;strokeColor=#FF6392;fillColor=#FFE45E;labelBackgroundColor=none;" parent="1" vertex="1"><mxGeometry x="860" y="288" width="260" height="136" as="geometry"/></mxCell><mxCell id="8I9pphBKhg92I5GMk5e_-91" value="" style="line;strokeWidth=1;fillColor=none;align=left;verticalAlign=middle;spacingTop=-1;spacingLeft=3;spacingRight=3;rotatable=0;labelPosition=right;points=[];portConstraint=eastwest;fontColor=#5AA9E6;labelBackgroundColor=none;strokeColor=#FF6392;" parent="8I9pphBKhg92I5GMk5e_-89" vertex="1"><mxGeometry y="26" width="260" height="8" as="geometry"/></mxCell><mxCell id="8I9pphBKhg92I5GMk5e_-92" value="+shift() &#10;+contains(): boolean&#10;+getRow()&#10;+getCol()&#10;+getNumRows()&#10;+getNumCols()          " style="text;strokeColor=none;fillColor=none;align=left;verticalAlign=top;spacingLeft=4;spacingRight=4;overflow=hidden;rotatable=0;points=[[0,0.5],[1,0.5]];portConstraint=eastwest;fontColor=#5AA9E6;labelBackgroundColor=none;" parent="8I9pphBKhg92I5GMk5e_-89" vertex="1"><mxGeometry y="34" width="260" height="102" as="geometry"/></mxCell><mxCell id="8I9pphBKhg92I5GMk5e_-96" value="Event" style="swimlane;fontStyle=1;align=center;verticalAlign=top;childLayout=stackLayout;horizontal=1;startSize=26;horizontalStack=0;resizeParent=1;resizeParentMax=0;resizeLast=0;collapsible=1;marginBottom=0;hachureGap=4;pointerEvents=0;sketch=0;fontColor=#5AA9E6;strokeColor=#FF6392;fillColor=#FFE45E;labelBackgroundColor=none;" parent="1" vertex="1"><mxGeometry x="1165" y="730" width="165" height="158" as="geometry"/></mxCell><mxCell id="8I9pphBKhg92I5GMk5e_-97" value="-action: Action&#10;-time: long&#10;-entity: Entity" style="text;strokeColor=none;fillColor=none;align=left;verticalAlign=top;spacingLeft=4;spacingRight=4;overflow=hidden;rotatable=0;points=[[0,0.5],[1,0.5]];portConstraint=eastwest;fontColor=#5AA9E6;labelBackgroundColor=none;" parent="8I9pphBKhg92I5GMk5e_-96" vertex="1"><mxGeometry y="26" width="165" height="64" as="geometry"/></mxCell><mxCell id="8I9pphBKhg92I5GMk5e_-98" value="" style="line;strokeWidth=1;fillColor=none;align=left;verticalAlign=middle;spacingTop=-1;spacingLeft=3;spacingRight=3;rotatable=0;labelPosition=right;points=[];portConstraint=eastwest;fontColor=#5AA9E6;labelBackgroundColor=none;strokeColor=#FF6392;" parent="8I9pphBKhg92I5GMk5e_-96" vertex="1"><mxGeometry y="90" width="165" height="8" as="geometry"/></mxCell><mxCell id="8I9pphBKhg92I5GMk5e_-99" value="+getAction()&#10;+getTime()&#10;+getEntity()" style="text;strokeColor=none;fillColor=none;align=left;verticalAlign=top;spacingLeft=4;spacingRight=4;overflow=hidden;rotatable=0;points=[[0,0.5],[1,0.5]];portConstraint=eastwest;fontColor=#5AA9E6;labelBackgroundColor=none;" parent="8I9pphBKhg92I5GMk5e_-96" vertex="1"><mxGeometry y="98" width="165" height="60" as="geometry"/></mxCell><mxCell id="8I9pphBKhg92I5GMk5e_-104" value="Point" style="swimlane;fontStyle=1;align=center;verticalAlign=top;childLayout=stackLayout;horizontal=1;startSize=26;horizontalStack=0;resizeParent=1;resizeParentMax=0;resizeLast=0;collapsible=1;marginBottom=0;hachureGap=4;pointerEvents=0;sketch=0;fontColor=#5AA9E6;strokeColor=#FF6392;fillColor=#FFE45E;labelBackgroundColor=none;" parent="1" vertex="1"><mxGeometry x="1720" y="-180" width="280" height="150" as="geometry"/></mxCell><mxCell id="8I9pphBKhg92I5GMk5e_-105" value="+x: int&#10;+y: int" style="text;strokeColor=none;fillColor=none;align=left;verticalAlign=top;spacingLeft=4;spacingRight=4;overflow=hidden;rotatable=0;points=[[0,0.5],[1,0.5]];portConstraint=eastwest;fontColor=#5AA9E6;labelBackgroundColor=none;" parent="8I9pphBKhg92I5GMk5e_-104" vertex="1"><mxGeometry y="26" width="280" height="54" as="geometry"/></mxCell><mxCell id="8I9pphBKhg92I5GMk5e_-106" value="" style="line;strokeWidth=1;fillColor=none;align=left;verticalAlign=middle;spacingTop=-1;spacingLeft=3;spacingRight=3;rotatable=0;labelPosition=right;points=[];portConstraint=eastwest;fontColor=#5AA9E6;labelBackgroundColor=none;strokeColor=#FF6392;" parent="8I9pphBKhg92I5GMk5e_-104" vertex="1"><mxGeometry y="80" width="280" height="8" as="geometry"/></mxCell><mxCell id="8I9pphBKhg92I5GMk5e_-107" value="+toString(): String&#10;+equals(): boolean&#10;+hashCode(): int&#10;+adjacent(): boolean  &lt;&lt;static&gt;&gt;" style="text;strokeColor=none;fillColor=none;align=left;verticalAlign=top;spacingLeft=4;spacingRight=4;overflow=hidden;rotatable=0;points=[[0,0.5],[1,0.5]];portConstraint=eastwest;labelBackgroundColor=none;fontColor=#5AA9E6;" parent="8I9pphBKhg92I5GMk5e_-104" vertex="1"><mxGeometry y="88" width="280" height="62" as="geometry"/></mxCell><mxCell id="8I9pphBKhg92I5GMk5e_-108" value="Action &lt;&lt;Interface&gt;&gt;" style="swimlane;fontStyle=1;align=center;verticalAlign=top;childLayout=stackLayout;horizontal=1;startSize=26;horizontalStack=0;resizeParent=1;resizeParentMax=0;resizeLast=0;collapsible=1;marginBottom=0;hachureGap=4;pointerEvents=0;sketch=0;fontColor=#5AA9E6;strokeColor=#FF6392;fillColor=#FFE45E;labelBackgroundColor=none;" parent="1" vertex="1"><mxGeometry x="1330" y="990" width="160" height="110" as="geometry"/></mxCell><mxCell id="8I9pphBKhg92I5GMk5e_-109" value="&#10;&#10;                " style="text;strokeColor=none;fillColor=none;align=left;verticalAlign=top;spacingLeft=4;spacingRight=4;overflow=hidden;rotatable=0;points=[[0,0.5],[1,0.5]];portConstraint=eastwest;fontColor=#5AA9E6;labelBackgroundColor=none;" parent="8I9pphBKhg92I5GMk5e_-108" vertex="1"><mxGeometry y="26" width="160" height="4" as="geometry"/></mxCell><mxCell id="8I9pphBKhg92I5GMk5e_-110" value="" style="line;strokeWidth=1;fillColor=none;align=left;verticalAlign=middle;spacingTop=-1;spacingLeft=3;spacingRight=3;rotatable=0;labelPosition=right;points=[];portConstraint=eastwest;fontColor=#5AA9E6;labelBackgroundColor=none;strokeColor=#FF6392;" parent="8I9pphBKhg92I5GMk5e_-108" vertex="1"><mxGeometry y="30" width="160" height="8" as="geometry"/></mxCell><mxCell id="8I9pphBKhg92I5GMk5e_-111" value="+executeAction() &#10;" style="text;strokeColor=none;fillColor=none;align=left;verticalAlign=top;spacingLeft=4;spacingRight=4;overflow=hidden;rotatable=0;points=[[0,0.5],[1,0.5]];portConstraint=eastwest;fontColor=#5AA9E6;labelBackgroundColor=none;" parent="8I9pphBKhg92I5GMk5e_-108" vertex="1"><mxGeometry y="38" width="160" height="72" as="geometry"/></mxCell><mxCell id="g82B2V8gWefZs02d5Zxm-2" value="Sapling" style="swimlane;fontStyle=1;align=center;verticalAlign=top;childLayout=stackLayout;horizontal=1;startSize=26;horizontalStack=0;resizeParent=1;resizeParentMax=0;resizeLast=0;collapsible=1;marginBottom=0;hachureGap=4;pointerEvents=0;sketch=0;fontColor=#5AA9E6;strokeColor=#FF6392;fillColor=#FFE45E;labelBackgroundColor=none;" parent="1" vertex="1"><mxGeometry x="2140" y="1400" width="250" height="430" as="geometry"/></mxCell><mxCell id="g82B2V8gWefZs02d5Zxm-3" value="-health: limit&#10;&#10;&#10;     " style="text;strokeColor=#FF6392;fillColor=#FFE45E;align=left;verticalAlign=top;spacingLeft=4;spacingRight=4;overflow=hidden;rotatable=0;points=[[0,0.5],[1,0.5]];portConstraint=eastwest;fontStyle=0;fontColor=#5AA9E6;labelBackgroundColor=none;" parent="g82B2V8gWefZs02d5Zxm-2" vertex="1"><mxGeometry y="26" width="250" height="184" as="geometry"/></mxCell><mxCell id="g82B2V8gWefZs02d5Zxm-4" value="" style="line;strokeWidth=1;fillColor=none;align=left;verticalAlign=middle;spacingTop=-1;spacingLeft=3;spacingRight=3;rotatable=0;labelPosition=right;points=[];portConstraint=eastwest;fontColor=#5AA9E6;labelBackgroundColor=none;strokeColor=#FF6392;" parent="g82B2V8gWefZs02d5Zxm-2" vertex="1"><mxGeometry y="210" width="250" height="8" as="geometry"/></mxCell><mxCell id="g82B2V8gWefZs02d5Zxm-5" value="  &#10;+executeActivity()  &#10;+transformSapling(): boolean&#10;            &#10;       " style="text;strokeColor=none;fillColor=none;align=left;verticalAlign=top;spacingLeft=4;spacingRight=4;overflow=hidden;rotatable=0;points=[[0,0.5],[1,0.5]];portConstraint=eastwest;fontColor=#5AA9E6;labelBackgroundColor=none;" parent="g82B2V8gWefZs02d5Zxm-2" vertex="1"><mxGeometry y="218" width="250" height="212" as="geometry"/></mxCell><mxCell id="g82B2V8gWefZs02d5Zxm-6" value="Tree" style="swimlane;fontStyle=1;align=center;verticalAlign=top;childLayout=stackLayout;horizontal=1;startSize=26;horizontalStack=0;resizeParent=1;resizeParentMax=0;resizeLast=0;collapsible=1;marginBottom=0;hachureGap=4;pointerEvents=0;sketch=0;fontColor=#5AA9E6;strokeColor=#FF6392;fillColor=#FFE45E;labelBackgroundColor=none;" parent="1" vertex="1"><mxGeometry x="2420" y="1400" width="250" height="390" as="geometry"/></mxCell><mxCell id="g82B2V8gWefZs02d5Zxm-7" value="&#10;&#10;&#10;     " style="text;strokeColor=#FF6392;fillColor=#FFE45E;align=left;verticalAlign=top;spacingLeft=4;spacingRight=4;overflow=hidden;rotatable=0;points=[[0,0.5],[1,0.5]];portConstraint=eastwest;fontStyle=0;fontColor=#5AA9E6;labelBackgroundColor=none;" parent="g82B2V8gWefZs02d5Zxm-6" vertex="1"><mxGeometry y="26" width="250" height="184" as="geometry"/></mxCell><mxCell id="g82B2V8gWefZs02d5Zxm-8" value="" style="line;strokeWidth=1;fillColor=none;align=left;verticalAlign=middle;spacingTop=-1;spacingLeft=3;spacingRight=3;rotatable=0;labelPosition=right;points=[];portConstraint=eastwest;fontColor=#5AA9E6;labelBackgroundColor=none;strokeColor=#FF6392;" parent="g82B2V8gWefZs02d5Zxm-6" vertex="1"><mxGeometry y="210" width="250" height="8" as="geometry"/></mxCell><mxCell id="g82B2V8gWefZs02d5Zxm-9" value=" &#10;+executeActivity()  &#10;+transformTree(): boolean                  &#10;&#10;            &#10;       " style="text;strokeColor=none;fillColor=none;align=left;verticalAlign=top;spacingLeft=4;spacingRight=4;overflow=hidden;rotatable=0;points=[[0,0.5],[1,0.5]];portConstraint=eastwest;fontColor=#5AA9E6;labelBackgroundColor=none;" parent="g82B2V8gWefZs02d5Zxm-6" vertex="1"><mxGeometry y="218" width="250" height="172" as="geometry"/></mxCell><mxCell id="g82B2V8gWefZs02d5Zxm-10" value="Fairy" style="swimlane;fontStyle=1;align=center;verticalAlign=top;childLayout=stackLayout;horizontal=1;startSize=26;horizontalStack=0;resizeParent=1;resizeParentMax=0;resizeLast=0;collapsible=1;marginBottom=0;hachureGap=4;pointerEvents=0;sketch=0;fontColor=#5AA9E6;strokeColor=#FF6392;fillColor=#FFE45E;labelBackgroundColor=none;" parent="1" vertex="1"><mxGeometry x="2710" y="1400" width="250" height="400" as="geometry"/></mxCell><mxCell id="g82B2V8gWefZs02d5Zxm-11" value="&#10;&#10;     " style="text;strokeColor=#FF6392;fillColor=#FFE45E;align=left;verticalAlign=top;spacingLeft=4;spacingRight=4;overflow=hidden;rotatable=0;points=[[0,0.5],[1,0.5]];portConstraint=eastwest;fontStyle=0;fontColor=#5AA9E6;labelBackgroundColor=none;" parent="g82B2V8gWefZs02d5Zxm-10" vertex="1"><mxGeometry y="26" width="250" height="184" as="geometry"/></mxCell><mxCell id="g82B2V8gWefZs02d5Zxm-12" value="" style="line;strokeWidth=1;fillColor=none;align=left;verticalAlign=middle;spacingTop=-1;spacingLeft=3;spacingRight=3;rotatable=0;labelPosition=right;points=[];portConstraint=eastwest;fontColor=#5AA9E6;labelBackgroundColor=none;strokeColor=#FF6392;" parent="g82B2V8gWefZs02d5Zxm-10" vertex="1"><mxGeometry y="210" width="250" height="8" as="geometry"/></mxCell><mxCell id="g82B2V8gWefZs02d5Zxm-13" value="&#10;+executeActivity()                   &#10;+moveTo(): boolean&#10;+_nextPosition: Point  &#10;&#10;            &#10;       " style="text;strokeColor=none;fillColor=none;align=left;verticalAlign=top;spacingLeft=4;spacingRight=4;overflow=hidden;rotatable=0;points=[[0,0.5],[1,0.5]];portConstraint=eastwest;fontColor=#5AA9E6;labelBackgroundColor=none;" parent="g82B2V8gWefZs02d5Zxm-10" vertex="1"><mxGeometry y="218" width="250" height="182" as="geometry"/></mxCell><mxCell id="g82B2V8gWefZs02d5Zxm-14" value="Stump" style="swimlane;fontStyle=1;align=center;verticalAlign=top;childLayout=stackLayout;horizontal=1;startSize=26;horizontalStack=0;resizeParent=1;resizeParentMax=0;resizeLast=0;collapsible=1;marginBottom=0;hachureGap=4;pointerEvents=0;sketch=0;fontColor=#5AA9E6;strokeColor=#FF6392;fillColor=#FFE45E;labelBackgroundColor=none;" parent="1" vertex="1"><mxGeometry x="3490" y="520" width="250" height="218" as="geometry"/></mxCell><mxCell id="g82B2V8gWefZs02d5Zxm-15" value="&#10;&#10;     " style="text;strokeColor=#FF6392;fillColor=#FFE45E;align=left;verticalAlign=top;spacingLeft=4;spacingRight=4;overflow=hidden;rotatable=0;points=[[0,0.5],[1,0.5]];portConstraint=eastwest;fontStyle=0;fontColor=#5AA9E6;labelBackgroundColor=none;" parent="g82B2V8gWefZs02d5Zxm-14" vertex="1"><mxGeometry y="26" width="250" height="184" as="geometry"/></mxCell><mxCell id="g82B2V8gWefZs02d5Zxm-16" value="" style="line;strokeWidth=1;fillColor=none;align=left;verticalAlign=middle;spacingTop=-1;spacingLeft=3;spacingRight=3;rotatable=0;labelPosition=right;points=[];portConstraint=eastwest;fontColor=#5AA9E6;labelBackgroundColor=none;strokeColor=#FF6392;" parent="g82B2V8gWefZs02d5Zxm-14" vertex="1"><mxGeometry y="210" width="250" height="8" as="geometry"/></mxCell><mxCell id="g82B2V8gWefZs02d5Zxm-18" value="DudeFull" style="swimlane;fontStyle=1;align=center;verticalAlign=top;childLayout=stackLayout;horizontal=1;startSize=26;horizontalStack=0;resizeParent=1;resizeParentMax=0;resizeLast=0;collapsible=1;marginBottom=0;hachureGap=4;pointerEvents=0;sketch=0;fontColor=#5AA9E6;strokeColor=#FF6392;fillColor=#FFE45E;labelBackgroundColor=none;" parent="1" vertex="1"><mxGeometry x="3130" y="2300" width="250" height="236" as="geometry"><mxRectangle x="1990" y="760" width="80" height="26" as="alternateBounds"/></mxGeometry></mxCell><mxCell id="g82B2V8gWefZs02d5Zxm-20" value="" style="line;strokeWidth=1;fillColor=none;align=left;verticalAlign=middle;spacingTop=-1;spacingLeft=3;spacingRight=3;rotatable=0;labelPosition=right;points=[];portConstraint=eastwest;fontColor=#5AA9E6;labelBackgroundColor=none;strokeColor=#FF6392;" parent="g82B2V8gWefZs02d5Zxm-18" vertex="1"><mxGeometry y="26" width="250" height="8" as="geometry"/></mxCell><mxCell id="g82B2V8gWefZs02d5Zxm-21" value="+executeActivity()&#10;+_doAdjacency()                   &#10;+_dudeToTransformInto()    " style="text;strokeColor=none;fillColor=none;align=left;verticalAlign=top;spacingLeft=4;spacingRight=4;overflow=hidden;rotatable=0;points=[[0,0.5],[1,0.5]];portConstraint=eastwest;fontColor=#5AA9E6;labelBackgroundColor=none;" parent="g82B2V8gWefZs02d5Zxm-18" vertex="1"><mxGeometry y="34" width="250" height="202" as="geometry"/></mxCell><mxCell id="g82B2V8gWefZs02d5Zxm-22" value="DudeNotFull" style="swimlane;fontStyle=1;align=center;verticalAlign=top;childLayout=stackLayout;horizontal=1;startSize=26;horizontalStack=0;resizeParent=1;resizeParentMax=0;resizeLast=0;collapsible=1;marginBottom=0;hachureGap=4;pointerEvents=0;sketch=0;fontColor=#5AA9E6;labelBackgroundColor=none;fillColor=#FFE45E;strokeColor=#FF6392;" parent="1" vertex="1"><mxGeometry x="2640" y="2210" width="250" height="410" as="geometry"/></mxCell><mxCell id="g82B2V8gWefZs02d5Zxm-23" value="" style="text;strokeColor=#FF6392;fillColor=#FFE45E;align=left;verticalAlign=top;spacingLeft=4;spacingRight=4;overflow=hidden;rotatable=0;points=[[0,0.5],[1,0.5]];portConstraint=eastwest;fontStyle=0;fontColor=#5AA9E6;labelBackgroundColor=none;" parent="g82B2V8gWefZs02d5Zxm-22" vertex="1"><mxGeometry y="26" width="250" height="184" as="geometry"/></mxCell><mxCell id="g82B2V8gWefZs02d5Zxm-24" value="" style="line;strokeWidth=1;fillColor=none;align=left;verticalAlign=middle;spacingTop=-1;spacingLeft=3;spacingRight=3;rotatable=0;labelPosition=right;points=[];portConstraint=eastwest;fontColor=#5AA9E6;labelBackgroundColor=none;strokeColor=#FF6392;" parent="g82B2V8gWefZs02d5Zxm-22" vertex="1"><mxGeometry y="210" width="250" height="8" as="geometry"/></mxCell><mxCell id="g82B2V8gWefZs02d5Zxm-25" value="+executeActivity()&#10;+transform(): boolean &#10;+_doAdjacency()   &#10;+_dudeToTransformInto()    " style="text;strokeColor=none;fillColor=none;align=left;verticalAlign=top;spacingLeft=4;spacingRight=4;overflow=hidden;rotatable=0;points=[[0,0.5],[1,0.5]];portConstraint=eastwest;fontColor=#5AA9E6;labelBackgroundColor=none;" parent="g82B2V8gWefZs02d5Zxm-22" vertex="1"><mxGeometry y="218" width="250" height="192" as="geometry"/></mxCell><mxCell id="g82B2V8gWefZs02d5Zxm-26" value="House" style="swimlane;fontStyle=1;align=center;verticalAlign=top;childLayout=stackLayout;horizontal=1;startSize=26;horizontalStack=0;resizeParent=1;resizeParentMax=0;resizeLast=0;collapsible=1;marginBottom=0;hachureGap=4;pointerEvents=0;sketch=0;fontColor=#5AA9E6;strokeColor=#FF6392;fillColor=#FFE45E;labelBackgroundColor=none;" parent="1" vertex="1"><mxGeometry x="3500" y="150" width="250" height="218" as="geometry"/></mxCell><mxCell id="g82B2V8gWefZs02d5Zxm-27" value="&#10;&#10;&#10;     " style="text;strokeColor=#FF6392;fillColor=#FFE45E;align=left;verticalAlign=top;spacingLeft=4;spacingRight=4;overflow=hidden;rotatable=0;points=[[0,0.5],[1,0.5]];portConstraint=eastwest;fontStyle=0;fontColor=#5AA9E6;labelBackgroundColor=none;" parent="g82B2V8gWefZs02d5Zxm-26" vertex="1"><mxGeometry y="26" width="250" height="184" as="geometry"/></mxCell><mxCell id="g82B2V8gWefZs02d5Zxm-28" value="" style="line;strokeWidth=1;fillColor=none;align=left;verticalAlign=middle;spacingTop=-1;spacingLeft=3;spacingRight=3;rotatable=0;labelPosition=right;points=[];portConstraint=eastwest;fontColor=#5AA9E6;labelBackgroundColor=none;strokeColor=#FF6392;" parent="g82B2V8gWefZs02d5Zxm-26" vertex="1"><mxGeometry y="210" width="250" height="8" as="geometry"/></mxCell><mxCell id="g82B2V8gWefZs02d5Zxm-30" value="Obstacle" style="swimlane;fontStyle=1;align=center;verticalAlign=top;childLayout=stackLayout;horizontal=1;startSize=26;horizontalStack=0;resizeParent=1;resizeParentMax=0;resizeLast=0;collapsible=1;marginBottom=0;hachureGap=4;pointerEvents=0;sketch=0;fontColor=#5AA9E6;strokeColor=#FF6392;fillColor=#FFE45E;labelBackgroundColor=none;" parent="1" vertex="1"><mxGeometry x="3490" y="936" width="250" height="218" as="geometry"/></mxCell><mxCell id="g82B2V8gWefZs02d5Zxm-31" value="" style="text;strokeColor=#FF6392;fillColor=#FFE45E;align=left;verticalAlign=top;spacingLeft=4;spacingRight=4;overflow=hidden;rotatable=0;points=[[0,0.5],[1,0.5]];portConstraint=eastwest;fontStyle=0;fontColor=#5AA9E6;labelBackgroundColor=none;" parent="g82B2V8gWefZs02d5Zxm-30" vertex="1"><mxGeometry y="26" width="250" height="184" as="geometry"/></mxCell><mxCell id="g82B2V8gWefZs02d5Zxm-32" value="" style="line;strokeWidth=1;fillColor=none;align=left;verticalAlign=middle;spacingTop=-1;spacingLeft=3;spacingRight=3;rotatable=0;labelPosition=right;points=[];portConstraint=eastwest;fontColor=#5AA9E6;labelBackgroundColor=none;strokeColor=#FF6392;" parent="g82B2V8gWefZs02d5Zxm-30" vertex="1"><mxGeometry y="210" width="250" height="8" as="geometry"/></mxCell><mxCell id="1D9PHXVJdhmf-Ac95ho_-1" value="ActivityAction" style="swimlane;fontStyle=1;align=center;verticalAlign=top;childLayout=stackLayout;horizontal=1;startSize=26;horizontalStack=0;resizeParent=1;resizeParentMax=0;resizeLast=0;collapsible=1;marginBottom=0;hachureGap=4;pointerEvents=0;sketch=0;fontColor=#5AA9E6;strokeColor=#FF6392;fillColor=#FFE45E;labelBackgroundColor=none;" parent="1" vertex="1"><mxGeometry x="1195" y="1110" width="160" height="210" as="geometry"/></mxCell><mxCell id="1D9PHXVJdhmf-Ac95ho_-2" value="-entity: Entity&#10;-world: WorldModel&#10;-imageStore: ImageStore&#10;&#10;                " style="text;strokeColor=none;fillColor=none;align=left;verticalAlign=top;spacingLeft=4;spacingRight=4;overflow=hidden;rotatable=0;points=[[0,0.5],[1,0.5]];portConstraint=eastwest;fontColor=#5AA9E6;labelBackgroundColor=none;" parent="1D9PHXVJdhmf-Ac95ho_-1" vertex="1"><mxGeometry y="26" width="160" height="104" as="geometry"/></mxCell><mxCell id="1D9PHXVJdhmf-Ac95ho_-3" value="" style="line;strokeWidth=1;fillColor=none;align=left;verticalAlign=middle;spacingTop=-1;spacingLeft=3;spacingRight=3;rotatable=0;labelPosition=right;points=[];portConstraint=eastwest;fontColor=#5AA9E6;labelBackgroundColor=none;strokeColor=#FF6392;" parent="1D9PHXVJdhmf-Ac95ho_-1" vertex="1"><mxGeometry y="130" width="160" height="8" as="geometry"/></mxCell><mxCell id="1D9PHXVJdhmf-Ac95ho_-4" value="+executeAction() &#10; " style="text;strokeColor=none;fillColor=none;align=left;verticalAlign=top;spacingLeft=4;spacingRight=4;overflow=hidden;rotatable=0;points=[[0,0.5],[1,0.5]];portConstraint=eastwest;fontColor=#5AA9E6;labelBackgroundColor=none;" parent="1D9PHXVJdhmf-Ac95ho_-1" vertex="1"><mxGeometry y="138" width="160" height="72" as="geometry"/></mxCell><mxCell id="1D9PHXVJdhmf-Ac95ho_-5" value="AnimationAction" style="swimlane;fontStyle=1;align=center;verticalAlign=top;childLayout=stackLayout;horizontal=1;startSize=26;horizontalStack=0;resizeParent=1;resizeParentMax=0;resizeLast=0;collapsible=1;marginBottom=0;hachureGap=4;pointerEvents=0;sketch=0;fontColor=#5AA9E6;strokeColor=#FF6392;fillColor=#FFE45E;labelBackgroundColor=none;" parent="1" vertex="1"><mxGeometry x="1480" y="1150" width="160" height="210" as="geometry"/></mxCell><mxCell id="1D9PHXVJdhmf-Ac95ho_-6" value="-entity: Entity&#10;-repeatCount: int&#10;&#10;                " style="text;strokeColor=none;fillColor=none;align=left;verticalAlign=top;spacingLeft=4;spacingRight=4;overflow=hidden;rotatable=0;points=[[0,0.5],[1,0.5]];portConstraint=eastwest;fontColor=#5AA9E6;labelBackgroundColor=none;" parent="1D9PHXVJdhmf-Ac95ho_-5" vertex="1"><mxGeometry y="26" width="160" height="104" as="geometry"/></mxCell><mxCell id="1D9PHXVJdhmf-Ac95ho_-7" value="" style="line;strokeWidth=1;fillColor=none;align=left;verticalAlign=middle;spacingTop=-1;spacingLeft=3;spacingRight=3;rotatable=0;labelPosition=right;points=[];portConstraint=eastwest;fontColor=#5AA9E6;labelBackgroundColor=none;strokeColor=#FF6392;" parent="1D9PHXVJdhmf-Ac95ho_-5" vertex="1"><mxGeometry y="130" width="160" height="8" as="geometry"/></mxCell><mxCell id="1D9PHXVJdhmf-Ac95ho_-8" value="+executeAction() &#10;" style="text;strokeColor=none;fillColor=none;align=left;verticalAlign=top;spacingLeft=4;spacingRight=4;overflow=hidden;rotatable=0;points=[[0,0.5],[1,0.5]];portConstraint=eastwest;fontColor=#5AA9E6;labelBackgroundColor=none;" parent="1D9PHXVJdhmf-Ac95ho_-5" vertex="1"><mxGeometry y="138" width="160" height="72" as="geometry"/></mxCell><mxCell id="1D9PHXVJdhmf-Ac95ho_-12" value="" style="endArrow=block;dashed=1;endFill=0;endSize=12;html=1;rounded=0;exitX=0.46;exitY=-0.019;exitDx=0;exitDy=0;exitPerimeter=0;entryX=0.006;entryY=0.693;entryDx=0;entryDy=0;entryPerimeter=0;fontColor=#5AA9E6;labelBackgroundColor=none;strokeColor=#FF6392;" parent="1" source="1D9PHXVJdhmf-Ac95ho_-1" target="8I9pphBKhg92I5GMk5e_-109" edge="1"><mxGeometry width="160" relative="1" as="geometry"><mxPoint x="1210" y="1040" as="sourcePoint"/><mxPoint x="1370" y="1040" as="targetPoint"/></mxGeometry></mxCell><mxCell id="1D9PHXVJdhmf-Ac95ho_-13" value="" style="endArrow=block;dashed=1;endFill=0;endSize=12;html=1;rounded=0;exitX=0.46;exitY=-0.019;exitDx=0;exitDy=0;exitPerimeter=0;entryX=0.993;entryY=0.279;entryDx=0;entryDy=0;entryPerimeter=0;fontColor=#5AA9E6;labelBackgroundColor=none;strokeColor=#FF6392;" parent="1" target="8I9pphBKhg92I5GMk5e_-111" edge="1"><mxGeometry width="160" relative="1" as="geometry"><mxPoint x="1560" y="1149.9999999999998" as="sourcePoint"/><mxPoint x="1647.3599999999997" y="942.7620000000004" as="targetPoint"/></mxGeometry></mxCell><mxCell id="1D9PHXVJdhmf-Ac95ho_-26" value="SchedulableEntity &lt;&lt;Interface&gt;&gt;" style="swimlane;fontStyle=1;align=center;verticalAlign=top;childLayout=stackLayout;horizontal=1;startSize=26;horizontalStack=0;resizeParent=1;resizeParentMax=0;resizeLast=0;collapsible=1;marginBottom=0;hachureGap=4;pointerEvents=0;sketch=0;fontColor=#5AA9E6;strokeColor=#FF6392;fillColor=#FFE45E;labelBackgroundColor=none;" parent="1" vertex="1"><mxGeometry x="2260" y="600" width="250" height="160" as="geometry"/></mxCell><mxCell id="1D9PHXVJdhmf-Ac95ho_-27" value="&#10;&#10;&#10;     " style="text;strokeColor=#FF6392;fillColor=#FFE45E;align=left;verticalAlign=top;spacingLeft=4;spacingRight=4;overflow=hidden;rotatable=0;points=[[0,0.5],[1,0.5]];portConstraint=eastwest;fontStyle=0;fontColor=#5AA9E6;labelBackgroundColor=none;" parent="1D9PHXVJdhmf-Ac95ho_-26" vertex="1"><mxGeometry y="26" width="250" height="4" as="geometry"/></mxCell><mxCell id="1D9PHXVJdhmf-Ac95ho_-28" value="" style="line;strokeWidth=1;fillColor=none;align=left;verticalAlign=middle;spacingTop=-1;spacingLeft=3;spacingRight=3;rotatable=0;labelPosition=right;points=[];portConstraint=eastwest;fontColor=#5AA9E6;labelBackgroundColor=none;strokeColor=#FF6392;" parent="1D9PHXVJdhmf-Ac95ho_-26" vertex="1"><mxGeometry y="30" width="250" height="8" as="geometry"/></mxCell><mxCell id="1D9PHXVJdhmf-Ac95ho_-29" value="&#10;+scheduleActions();" style="text;strokeColor=none;fillColor=none;align=left;verticalAlign=top;spacingLeft=4;spacingRight=4;overflow=hidden;rotatable=0;points=[[0,0.5],[1,0.5]];portConstraint=eastwest;fontColor=#5AA9E6;labelBackgroundColor=none;" parent="1D9PHXVJdhmf-Ac95ho_-26" vertex="1"><mxGeometry y="38" width="250" height="122" as="geometry"/></mxCell><mxCell id="1D9PHXVJdhmf-Ac95ho_-32" value="GameLoader" style="swimlane;fontStyle=1;align=center;verticalAlign=top;childLayout=stackLayout;horizontal=1;startSize=26;horizontalStack=0;resizeParent=1;resizeParentMax=0;resizeLast=0;collapsible=1;marginBottom=0;hachureGap=4;pointerEvents=0;sketch=0;fontColor=#5AA9E6;strokeColor=#FF6392;fillColor=#FFE45E;labelBackgroundColor=none;" parent="1" vertex="1"><mxGeometry x="-50" y="950" width="360" height="1330" as="geometry"/></mxCell><mxCell id="1D9PHXVJdhmf-Ac95ho_-33" value="**all public &#10;    COLOR_MASK &#10;    KEYED_IMAGE_MIN&#10;    KEYED_RED_IDX &#10;    KEYED_GREEN_IDX &#10;    KEYED_BLUE_IDX &#10;&#10;    PROPERTY_KEY &#10;&#10;    List&lt;String&gt; PATH_KEYS &#10;&#10;    String SAPLING_KEY &#10;    SAPLING_NUM_PROPERTIES &#10;    SAPLING_ID &#10;    SAPLING_COL &#10;    SAPLING_ROW &#10;    SAPLING_HEALTH &#10;&#10;    String BGND_KEY &#10;    BGND_NUM_PROPERTIES &#10;    BGND_ID &#10;    BGND_COL &#10;    BGND_ROW &#10;&#10;    String OBSTACLE_KEY &#10;    OBSTACLE_NUM_PROPERTIES &#10;    OBSTACLE_ID &#10;    OBSTACLE_COL &#10;    OBSTACLE_ROW &#10;    OBSTACLE_ANIMATION_PERIOD &#10;&#10;    String DUDE_KEY &#10;    DUDE_NUM_PROPERTIES &#10;    DUDE_ID &#10;    DUDE_COL &#10;    DUDE_ROW &#10;    DUDE_LIMIT &#10;    DUDE_ACTION_PERIOD &#10;    DUDE_ANIMATION_PERIOD &#10;&#10;    String HOUSE_KEY &#10;    HOUSE_NUM_PROPERTIES &#10;    HOUSE_ID &#10;    HOUSE_COL &#10;    HOUSE_ROW &#10;&#10;    String FAIRY_KEY &#10;    FAIRY_NUM_PROPERTIES &#10;    FAIRY_ID &#10;    FAIRY_COL &#10;    FAIRY_ROW &#10;    FAIRY_ANIMATION_PERIOD &#10;    FAIRY_ACTION_PERIOD &#10;&#10;&#10;    String TREE_KEY &#10;    TREE_NUM_PROPERTIES &#10;    TREE_ID &#10;    TREE_COL &#10;    REE_ROW &#10;    TREE_ANIMATION_PERIOD = 4;&#10;    TREE_ACTION_PERIOD = 5;&#10;    TREE_HEALTH = 6;&#10;" style="text;strokeColor=none;fillColor=none;align=left;verticalAlign=top;spacingLeft=4;spacingRight=4;overflow=hidden;rotatable=0;points=[[0,0.5],[1,0.5]];portConstraint=eastwest;fontColor=#5AA9E6;labelBackgroundColor=none;" parent="1D9PHXVJdhmf-Ac95ho_-32" vertex="1"><mxGeometry y="26" width="360" height="964" as="geometry"/></mxCell><mxCell id="1D9PHXVJdhmf-Ac95ho_-34" value="" style="line;strokeWidth=1;fillColor=none;align=left;verticalAlign=middle;spacingTop=-1;spacingLeft=3;spacingRight=3;rotatable=0;labelPosition=right;points=[];portConstraint=eastwest;strokeColor=#FF6392;fontColor=#5AA9E6;labelBackgroundColor=none;" parent="1D9PHXVJdhmf-Ac95ho_-32" vertex="1"><mxGeometry y="990" width="360" height="8" as="geometry"/></mxCell><mxCell id="1D9PHXVJdhmf-Ac95ho_-35" value="&#10;&#10;+loadImages()                                &lt;&lt;static&gt;&gt;&#10;+processImageLine()                          &lt;&lt;static&gt;&gt;&#10;+getImages(): List&lt;PImage&gt;                   &lt;&lt;static&gt;&gt;&#10;+setAlpha()                                  &lt;&lt;static&gt;&gt;&#10;&#10;+load()                                      &lt;&lt;static&gt;&gt;&#10;+processLine(): boolean                      &lt;&lt;static&gt;&gt;&#10;&#10;+parseBackground(): boolean                  &lt;&lt;static&gt;&gt;&#10;+parseSapling(): boolean                       &lt;&lt;static&gt;&gt;&#10;+parseDude(): boolean                    &lt;&lt;static&gt;&gt;&#10;+parseFairy(): boolean                         &lt;&lt;static&gt;&gt;&#10;+parseTree(): boolean                       &lt;&lt;static&gt;&gt;&#10;+parseObstacle(): boolean                        &lt;&lt;static&gt;&gt;&#10;+parseHouse(): boolean                        &lt;&lt;static&gt;&gt;&#10;&#10;&#10;&#10;&#10;" style="text;strokeColor=none;fillColor=none;align=left;verticalAlign=top;spacingLeft=4;spacingRight=4;overflow=hidden;rotatable=0;points=[[0,0.5],[1,0.5]];portConstraint=eastwest;fontColor=#5AA9E6;labelBackgroundColor=none;" parent="1D9PHXVJdhmf-Ac95ho_-32" vertex="1"><mxGeometry y="998" width="360" height="332" as="geometry"/></mxCell><mxCell id="1D9PHXVJdhmf-Ac95ho_-36" value="Factory" style="swimlane;fontStyle=1;align=center;verticalAlign=top;childLayout=stackLayout;horizontal=1;startSize=26;horizontalStack=0;resizeParent=1;resizeParentMax=0;resizeLast=0;collapsible=1;marginBottom=0;hachureGap=4;pointerEvents=0;sketch=0;fontColor=#5AA9E6;strokeColor=#FF6392;fillColor=#FFE45E;labelBackgroundColor=none;" parent="1" vertex="1"><mxGeometry x="-480" y="970" width="360" height="366" as="geometry"/></mxCell><mxCell id="1D9PHXVJdhmf-Ac95ho_-38" value="" style="line;strokeWidth=1;fillColor=none;align=left;verticalAlign=middle;spacingTop=-1;spacingLeft=3;spacingRight=3;rotatable=0;labelPosition=right;points=[];portConstraint=eastwest;strokeColor=#FF6392;fontColor=#5AA9E6;labelBackgroundColor=none;" parent="1D9PHXVJdhmf-Ac95ho_-36" vertex="1"><mxGeometry y="26" width="360" height="8" as="geometry"/></mxCell><mxCell id="1D9PHXVJdhmf-Ac95ho_-39" value="All &lt;&lt;static&gt;&gt;&#10;&#10;+createHouse()&#10;+createStump()&#10;+createSapling()&#10;+createTree()&#10;+createDudeFull()&#10;+createDudeNotFull()&#10;+createFairy()&#10;+createObstacle()&#10;+createAnimationActivity()&#10;+createActionActivity()" style="text;strokeColor=none;fillColor=none;align=left;verticalAlign=top;spacingLeft=4;spacingRight=4;overflow=hidden;rotatable=0;points=[[0,0.5],[1,0.5]];portConstraint=eastwest;fontColor=#5AA9E6;labelBackgroundColor=none;" parent="1D9PHXVJdhmf-Ac95ho_-36" vertex="1"><mxGeometry y="34" width="360" height="332" as="geometry"/></mxCell><mxCell id="z66vfz7VPXV0mX-6-Bum-1" value="AnimatedEntity &lt;&lt;Interface&gt;&gt;" style="swimlane;fontStyle=1;align=center;verticalAlign=top;childLayout=stackLayout;horizontal=1;startSize=26;horizontalStack=0;resizeParent=1;resizeParentMax=0;resizeLast=0;collapsible=1;marginBottom=0;hachureGap=4;pointerEvents=0;sketch=0;fontColor=#5AA9E6;strokeColor=#FF6392;fillColor=#FFE45E;labelBackgroundColor=none;" parent="1" vertex="1"><mxGeometry x="2620" y="730" width="250" height="160" as="geometry"/></mxCell><mxCell id="z66vfz7VPXV0mX-6-Bum-2" value="&#10;&#10;&#10;     " style="text;strokeColor=#FF6392;fillColor=#FFE45E;align=left;verticalAlign=top;spacingLeft=4;spacingRight=4;overflow=hidden;rotatable=0;points=[[0,0.5],[1,0.5]];portConstraint=eastwest;fontStyle=0;fontColor=#5AA9E6;labelBackgroundColor=none;" parent="z66vfz7VPXV0mX-6-Bum-1" vertex="1"><mxGeometry y="26" width="250" height="4" as="geometry"/></mxCell><mxCell id="z66vfz7VPXV0mX-6-Bum-3" value="" style="line;strokeWidth=1;fillColor=none;align=left;verticalAlign=middle;spacingTop=-1;spacingLeft=3;spacingRight=3;rotatable=0;labelPosition=right;points=[];portConstraint=eastwest;fontColor=#5AA9E6;labelBackgroundColor=none;strokeColor=#FF6392;" parent="z66vfz7VPXV0mX-6-Bum-1" vertex="1"><mxGeometry y="30" width="250" height="8" as="geometry"/></mxCell><mxCell id="z66vfz7VPXV0mX-6-Bum-4" value="+getAnimationPeriod();&#10;+nextImage();&#10;&#10;" style="text;strokeColor=none;fillColor=none;align=left;verticalAlign=top;spacingLeft=4;spacingRight=4;overflow=hidden;rotatable=0;points=[[0,0.5],[1,0.5]];portConstraint=eastwest;fontColor=#5AA9E6;labelBackgroundColor=none;" parent="z66vfz7VPXV0mX-6-Bum-1" vertex="1"><mxGeometry y="38" width="250" height="122" as="geometry"/></mxCell><mxCell id="z66vfz7VPXV0mX-6-Bum-8" value="OperableEntity &lt;&lt;Interface&gt;&gt;" style="swimlane;fontStyle=1;align=center;verticalAlign=top;childLayout=stackLayout;horizontal=1;startSize=26;horizontalStack=0;resizeParent=1;resizeParentMax=0;resizeLast=0;collapsible=1;marginBottom=0;hachureGap=4;pointerEvents=0;sketch=0;fontColor=#5AA9E6;strokeColor=#FF6392;fillColor=#FFE45E;labelBackgroundColor=none;" parent="1" vertex="1"><mxGeometry x="2520" y="950" width="250" height="150" as="geometry"/></mxCell><mxCell id="z66vfz7VPXV0mX-6-Bum-9" value="&#10;&#10;&#10;     " style="text;strokeColor=#FF6392;fillColor=#FFE45E;align=left;verticalAlign=top;spacingLeft=4;spacingRight=4;overflow=hidden;rotatable=0;points=[[0,0.5],[1,0.5]];portConstraint=eastwest;fontStyle=0;fontColor=#5AA9E6;labelBackgroundColor=none;" parent="z66vfz7VPXV0mX-6-Bum-8" vertex="1"><mxGeometry y="26" width="250" height="4" as="geometry"/></mxCell><mxCell id="z66vfz7VPXV0mX-6-Bum-10" value="" style="line;strokeWidth=1;fillColor=none;align=left;verticalAlign=middle;spacingTop=-1;spacingLeft=3;spacingRight=3;rotatable=0;labelPosition=right;points=[];portConstraint=eastwest;fontColor=#5AA9E6;labelBackgroundColor=none;strokeColor=#FF6392;" parent="z66vfz7VPXV0mX-6-Bum-8" vertex="1"><mxGeometry y="30" width="250" height="8" as="geometry"/></mxCell><mxCell id="z66vfz7VPXV0mX-6-Bum-11" value="+executeActivity();&#10;" style="text;strokeColor=none;fillColor=none;align=left;verticalAlign=top;spacingLeft=4;spacingRight=4;overflow=hidden;rotatable=0;points=[[0,0.5],[1,0.5]];portConstraint=eastwest;fontColor=#5AA9E6;labelBackgroundColor=none;" parent="z66vfz7VPXV0mX-6-Bum-8" vertex="1"><mxGeometry y="38" width="250" height="112" as="geometry"/></mxCell><mxCell id="z66vfz7VPXV0mX-6-Bum-12" value="Extends" style="endArrow=block;endSize=16;endFill=0;html=1;rounded=0;exitX=-0.015;exitY=0.314;exitDx=0;exitDy=0;entryX=1;entryY=0.5;entryDx=0;entryDy=0;fontColor=#5AA9E6;labelBackgroundColor=none;strokeColor=#FF6392;exitPerimeter=0;" parent="1" source="z66vfz7VPXV0mX-6-Bum-4" target="1D9PHXVJdhmf-Ac95ho_-29" edge="1"><mxGeometry width="160" relative="1" as="geometry"><mxPoint x="1840" y="430" as="sourcePoint"/><mxPoint x="2000" y="430" as="targetPoint"/></mxGeometry></mxCell><mxCell id="z66vfz7VPXV0mX-6-Bum-13" value="Extends" style="endArrow=block;endSize=16;endFill=0;html=1;rounded=0;entryX=0.535;entryY=1.003;entryDx=0;entryDy=0;entryPerimeter=0;exitX=0.5;exitY=0;exitDx=0;exitDy=0;fontColor=#5AA9E6;labelBackgroundColor=none;strokeColor=#FF6392;" parent="1" source="1D9PHXVJdhmf-Ac95ho_-26" target="8I9pphBKhg92I5GMk5e_-88" edge="1"><mxGeometry width="160" relative="1" as="geometry"><mxPoint x="2384" y="640" as="sourcePoint"/><mxPoint x="2630.999999999999" y="435.954" as="targetPoint"/></mxGeometry></mxCell><mxCell id="z66vfz7VPXV0mX-6-Bum-14" value="Extends" style="endArrow=block;endSize=16;endFill=0;html=1;rounded=0;exitX=0.5;exitY=0;exitDx=0;exitDy=0;entryX=0.751;entryY=1.044;entryDx=0;entryDy=0;entryPerimeter=0;fontColor=#5AA9E6;labelBackgroundColor=none;strokeColor=#FF6392;" parent="1" source="z66vfz7VPXV0mX-6-Bum-8" target="1D9PHXVJdhmf-Ac95ho_-29" edge="1"><mxGeometry width="160" relative="1" as="geometry"><mxPoint x="2800" y="620" as="sourcePoint"/><mxPoint x="2560" y="520" as="targetPoint"/></mxGeometry></mxCell><mxCell id="z66vfz7VPXV0mX-6-Bum-17" value="" style="endArrow=block;dashed=1;endFill=0;endSize=12;html=1;rounded=0;exitX=0;exitY=0.674;exitDx=0;exitDy=0;exitPerimeter=0;fontColor=#5AA9E6;labelBackgroundColor=none;strokeColor=#FF6392;" parent="1" source="g82B2V8gWefZs02d5Zxm-27" target="8" edge="1"><mxGeometry width="160" relative="1" as="geometry"><mxPoint x="2530" y="180" as="sourcePoint"/><mxPoint x="2690" y="180" as="targetPoint"/></mxGeometry></mxCell><mxCell id="z66vfz7VPXV0mX-6-Bum-18" value="" style="endArrow=block;dashed=1;endFill=0;endSize=12;html=1;rounded=0;entryX=1.009;entryY=0.777;entryDx=0;entryDy=0;entryPerimeter=0;exitX=-0.008;exitY=0.422;exitDx=0;exitDy=0;exitPerimeter=0;fontColor=#5AA9E6;labelBackgroundColor=none;strokeColor=#FF6392;" parent="1" source="g82B2V8gWefZs02d5Zxm-15" target="8" edge="1"><mxGeometry width="160" relative="1" as="geometry"><mxPoint x="2710" y="566.3359999999996" as="sourcePoint"/><mxPoint x="2504.75" y="659.9999999999998" as="targetPoint"/></mxGeometry></mxCell><mxCell id="z66vfz7VPXV0mX-6-Bum-19" value="" style="endArrow=block;dashed=1;endFill=0;endSize=12;html=1;rounded=0;fontColor=#5AA9E6;labelBackgroundColor=none;strokeColor=#FF6392;entryX=-0.004;entryY=0.332;entryDx=0;entryDy=0;entryPerimeter=0;exitX=0.5;exitY=0;exitDx=0;exitDy=0;" parent="1" source="g82B2V8gWefZs02d5Zxm-6" target="36" edge="1"><mxGeometry width="160" relative="1" as="geometry"><mxPoint x="2545" y="1300" as="sourcePoint"/><mxPoint x="2870" y="1180" as="targetPoint"/></mxGeometry></mxCell><mxCell id="z66vfz7VPXV0mX-6-Bum-20" value="" style="endArrow=block;dashed=1;endFill=0;endSize=12;html=1;rounded=0;exitX=0.5;exitY=0;exitDx=0;exitDy=0;fontColor=#5AA9E6;labelBackgroundColor=none;strokeColor=#FF6392;entryX=-0.017;entryY=0.328;entryDx=0;entryDy=0;entryPerimeter=0;" parent="1" source="g82B2V8gWefZs02d5Zxm-10" target="66" edge="1"><mxGeometry width="160" relative="1" as="geometry"><mxPoint x="2115" y="1389.9999999999995" as="sourcePoint"/><mxPoint x="2900" y="1270" as="targetPoint"/><Array as="points"><mxPoint x="3020" y="1340"/></Array></mxGeometry></mxCell><mxCell id="z66vfz7VPXV0mX-6-Bum-23" value="" style="endArrow=block;dashed=1;endFill=0;endSize=12;html=1;rounded=0;exitX=0.5;exitY=0;exitDx=0;exitDy=0;fontColor=#5AA9E6;labelBackgroundColor=none;strokeColor=#FF6392;entryX=0;entryY=0.5;entryDx=0;entryDy=0;" parent="1" source="g82B2V8gWefZs02d5Zxm-22" target="75" edge="1"><mxGeometry width="160" relative="1" as="geometry"><mxPoint x="3130" y="1389.9999999999995" as="sourcePoint"/><mxPoint x="3080" y="1200" as="targetPoint"/></mxGeometry></mxCell><mxCell id="z66vfz7VPXV0mX-6-Bum-28" value="" style="endArrow=block;dashed=1;endFill=0;endSize=12;html=1;rounded=0;exitX=0.5;exitY=0;exitDx=0;exitDy=0;entryX=1;entryY=0.5;entryDx=0;entryDy=0;fontColor=#5AA9E6;labelBackgroundColor=none;strokeColor=#FF6392;" parent="1" source="g82B2V8gWefZs02d5Zxm-30" target="17" edge="1"><mxGeometry width="160" relative="1" as="geometry"><mxPoint x="2115" y="1389.9999999999995" as="sourcePoint"/><mxPoint x="2088" y="1040.366" as="targetPoint"/></mxGeometry></mxCell><mxCell id="z66vfz7VPXV0mX-6-Bum-30" value="" style="endArrow=block;dashed=1;endFill=0;endSize=12;html=1;rounded=0;exitX=0.577;exitY=-0.009;exitDx=0;exitDy=0;exitPerimeter=0;fontColor=#5AA9E6;labelBackgroundColor=none;strokeColor=#FF6392;" parent="1" source="g82B2V8gWefZs02d5Zxm-2" edge="1"><mxGeometry width="160" relative="1" as="geometry"><mxPoint x="3241.25" y="1310" as="sourcePoint"/><mxPoint x="2770" y="1190" as="targetPoint"/></mxGeometry></mxCell><mxCell id="5" value="EntityCls &lt;&lt;Abstract&gt;&gt;" style="swimlane;fontStyle=1;align=center;verticalAlign=top;childLayout=stackLayout;horizontal=1;startSize=30;horizontalStack=0;resizeParent=1;resizeParentMax=0;resizeLast=0;collapsible=1;marginBottom=0;hachureGap=4;pointerEvents=0;sketch=0;fontColor=#5AA9E6;strokeColor=#FF6392;fillColor=#FFE45E;labelBackgroundColor=none;" parent="1" vertex="1"><mxGeometry x="3080" y="170" width="250" height="210" as="geometry"/></mxCell><mxCell id="6" value="-id: String&#10;-position: Point&#10;-images: List&lt;PImage&gt;&#10;-imageIndex: int" style="text;strokeColor=#FF6392;fillColor=#FFE45E;align=left;verticalAlign=top;spacingLeft=4;spacingRight=4;overflow=hidden;rotatable=0;points=[[0,0.5],[1,0.5]];portConstraint=eastwest;fontStyle=0;fontColor=#5AA9E6;labelBackgroundColor=none;" parent="5" vertex="1"><mxGeometry y="30" width="250" height="70" as="geometry"/></mxCell><mxCell id="8" value="+public String getId();&#10;+public Point getPosition();&#10;+public void setPosition(); &#10;+getImage()&#10;       " style="text;strokeColor=none;fillColor=none;align=left;verticalAlign=top;spacingLeft=4;spacingRight=4;overflow=hidden;rotatable=0;points=[[0,0.5],[1,0.5]];portConstraint=eastwest;fontColor=#5AA9E6;labelBackgroundColor=none;" parent="5" vertex="1"><mxGeometry y="100" width="250" height="110" as="geometry"/></mxCell><mxCell id="9" value="" style="endArrow=block;dashed=1;endFill=0;endSize=12;html=1;rounded=0;entryX=0.999;entryY=0.799;entryDx=0;entryDy=0;entryPerimeter=0;exitX=0;exitY=0.5;exitDx=0;exitDy=0;fontColor=#5AA9E6;labelBackgroundColor=none;strokeColor=#FF6392;" parent="1" source="8" edge="1"><mxGeometry width="160" relative="1" as="geometry"><mxPoint x="3198.25" y="498.3179999999997" as="sourcePoint"/><mxPoint x="2500" y="339.998" as="targetPoint"/></mxGeometry></mxCell><mxCell id="14" value="AnimatedEntity &lt;&lt;Abstract&gt;&gt;" style="swimlane;fontStyle=1;align=center;verticalAlign=top;childLayout=stackLayout;horizontal=1;startSize=26;horizontalStack=0;resizeParent=1;resizeParentMax=0;resizeLast=0;collapsible=1;marginBottom=0;hachureGap=4;pointerEvents=0;sketch=0;fontColor=#5AA9E6;strokeColor=#FF6392;fillColor=#FFE45E;labelBackgroundColor=none;" parent="1" vertex="1"><mxGeometry x="3080" y="706" width="250" height="182" as="geometry"/></mxCell><mxCell id="15" value="-animationPeriod: int" style="text;strokeColor=#FF6392;fillColor=#FFE45E;align=left;verticalAlign=top;spacingLeft=4;spacingRight=4;overflow=hidden;rotatable=0;points=[[0,0.5],[1,0.5]];portConstraint=eastwest;fontStyle=0;fontColor=#5AA9E6;labelBackgroundColor=none;" parent="14" vertex="1"><mxGeometry y="26" width="250" height="34" as="geometry"/></mxCell><mxCell id="17" value="+getAnimationPeriod();&#10;+scheduleActions();&#10;+getCurrentImage()&#10;+getImages()&#10;+nextImage()" style="text;strokeColor=none;fillColor=none;align=left;verticalAlign=top;spacingLeft=4;spacingRight=4;overflow=hidden;rotatable=0;points=[[0,0.5],[1,0.5]];portConstraint=eastwest;fontColor=#5AA9E6;labelBackgroundColor=none;" parent="14" vertex="1"><mxGeometry y="60" width="250" height="122" as="geometry"/></mxCell><mxCell id="18" value="OperableEntityCls &lt;&lt;Abstract&gt;&gt;" style="swimlane;fontStyle=1;align=center;verticalAlign=top;childLayout=stackLayout;horizontal=1;startSize=26;horizontalStack=0;resizeParent=1;resizeParentMax=0;resizeLast=0;collapsible=1;marginBottom=0;hachureGap=4;pointerEvents=0;sketch=0;fontColor=#5AA9E6;strokeColor=#FF6392;fillColor=#FFE45E;labelBackgroundColor=none;" parent="1" vertex="1"><mxGeometry x="3070" y="992" width="250" height="162" as="geometry"/></mxCell><mxCell id="19" value="-actionPeriod: int" style="text;strokeColor=#FF6392;fillColor=#FFE45E;align=left;verticalAlign=top;spacingLeft=4;spacingRight=4;overflow=hidden;rotatable=0;points=[[0,0.5],[1,0.5]];portConstraint=eastwest;fontStyle=0;fontColor=#5AA9E6;labelBackgroundColor=none;" parent="18" vertex="1"><mxGeometry y="26" width="250" height="44" as="geometry"/></mxCell><mxCell id="21" value="+abstract executeActivity();&#10;+replaceWith() - helper method&#10;+scheduleActions()&#10;" style="text;strokeColor=none;fillColor=none;align=left;verticalAlign=top;spacingLeft=4;spacingRight=4;overflow=hidden;rotatable=0;points=[[0,0.5],[1,0.5]];portConstraint=eastwest;fontColor=#5AA9E6;labelBackgroundColor=none;" parent="18" vertex="1"><mxGeometry y="70" width="250" height="92" as="geometry"/></mxCell><mxCell id="22" value="Extends" style="endArrow=block;endSize=16;endFill=0;html=1;rounded=0;exitX=0.5;exitY=0;exitDx=0;exitDy=0;fontColor=#5AA9E6;labelBackgroundColor=none;strokeColor=#FF6392;entryX=0.384;entryY=1.075;entryDx=0;entryDy=0;entryPerimeter=0;" parent="1" source="14" target="8" edge="1"><mxGeometry width="160" relative="1" as="geometry"><mxPoint x="3364.75" y="862.09" as="sourcePoint"/><mxPoint x="3170" y="600" as="targetPoint"/></mxGeometry></mxCell><mxCell id="23" value="Extends" style="endArrow=block;endSize=16;endFill=0;html=1;rounded=0;exitX=0.588;exitY=-0.022;exitDx=0;exitDy=0;fontColor=#5AA9E6;labelBackgroundColor=none;strokeColor=#FF6392;exitPerimeter=0;entryX=0.516;entryY=1;entryDx=0;entryDy=0;entryPerimeter=0;" parent="1" source="18" target="17" edge="1"><mxGeometry width="160" relative="1" as="geometry"><mxPoint x="3235" y="990" as="sourcePoint"/><mxPoint x="3205" y="950" as="targetPoint"/></mxGeometry></mxCell><mxCell id="25" value="" style="endArrow=block;dashed=1;endFill=0;endSize=12;html=1;rounded=0;exitX=0.5;exitY=0;exitDx=0;exitDy=0;fontColor=#5AA9E6;labelBackgroundColor=none;strokeColor=#FF6392;entryX=1;entryY=0.5;entryDx=0;entryDy=0;" parent="1" source="g82B2V8gWefZs02d5Zxm-18" target="77" edge="1"><mxGeometry width="160" relative="1" as="geometry"><mxPoint x="3400" y="1440" as="sourcePoint"/><mxPoint x="3355" y="1240" as="targetPoint"/></mxGeometry></mxCell><mxCell id="27" value="" style="endArrow=block;dashed=1;endFill=0;endSize=12;html=1;rounded=0;exitX=0.5;exitY=0;exitDx=0;exitDy=0;entryX=1.012;entryY=0.786;entryDx=0;entryDy=0;fontColor=#5AA9E6;labelBackgroundColor=none;strokeColor=#FF6392;entryPerimeter=0;" parent="1" target="z66vfz7VPXV0mX-6-Bum-11" edge="1"><mxGeometry width="160" relative="1" as="geometry"><mxPoint x="3080" y="1075.5" as="sourcePoint"/><mxPoint x="2735" y="1014.5" as="targetPoint"/></mxGeometry></mxCell><mxCell id="28" value="&lt;span style=&quot;color: rgba(0 , 0 , 0 , 0) ; font-family: monospace ; font-size: 0px&quot;&gt;%3CmxGraphModel%3E%3Croot%3E%3CmxCell%20id%3D%220%22%2F%3E%3CmxCell%20id%3D%221%22%20parent%3D%220%22%2F%3E%3CmxCell%20id%3D%222%22%20value%3D%22%22%20style%3D%22endArrow%3Dblock%3Bdashed%3D1%3BendFill%3D0%3BendSize%3D12%3Bhtml%3D1%3Brounded%3D0%3BexitX%3D0.5%3BexitY%3D0%3BexitDx%3D0%3BexitDy%3D0%3BentryX%3D1.012%3BentryY%3D0.786%3BentryDx%3D0%3BentryDy%3D0%3BfontColor%3D%235AA9E6%3BlabelBackgroundColor%3Dnone%3BstrokeColor%3D%23FF6392%3BentryPerimeter%3D0%3B%22%20edge%3D%221%22%20parent%3D%221%22%3E%3CmxGeometry%20width%3D%22160%22%20relative%3D%221%22%20as%3D%22geometry%22%3E%3CmxPoint%20x%3D%223080%22%20y%3D%221075.5%22%20as%3D%22sourcePoint%22%2F%3E%3CmxPoint%20x%3D%222743%22%20y%3D%221096.0319999999997%22%20as%3D%22targetPoint%22%2F%3E%3C%2FmxGeometry%3E%3C%2FmxCell%3E%3C%2Froot%3E%3C%2FmxGraphModel%3E&lt;/span&gt;" style="endArrow=block;dashed=1;endFill=0;endSize=12;html=1;rounded=0;exitX=0.5;exitY=0;exitDx=0;exitDy=0;entryX=1.009;entryY=0.719;entryDx=0;entryDy=0;fontColor=#5AA9E6;labelBackgroundColor=none;strokeColor=#FF6392;entryPerimeter=0;" parent="1" target="z66vfz7VPXV0mX-6-Bum-4" edge="1"><mxGeometry width="160" relative="1" as="geometry"><mxPoint x="3080" y="849.47" as="sourcePoint"/><mxPoint x="2743" y="870.0019999999997" as="targetPoint"/></mxGeometry></mxCell><mxCell id="30" value="AutonomousDude &lt;&lt;Abstract&gt;&gt;" style="swimlane;fontStyle=1;align=center;verticalAlign=top;childLayout=stackLayout;horizontal=1;startSize=26;horizontalStack=0;resizeParent=1;resizeParentMax=0;resizeLast=0;collapsible=1;marginBottom=0;hachureGap=4;pointerEvents=0;sketch=0;fontColor=#5AA9E6;strokeColor=#FF6392;fillColor=#FFE45E;labelBackgroundColor=none;" parent="1" vertex="1"><mxGeometry x="3120" y="1620" width="250" height="162" as="geometry"/></mxCell><mxCell id="31" value="-resourceLimit&#10;&#10;&#10;&#10;     " style="text;strokeColor=#FF6392;fillColor=#FFE45E;align=left;verticalAlign=top;spacingLeft=4;spacingRight=4;overflow=hidden;rotatable=0;points=[[0,0.5],[1,0.5]];portConstraint=eastwest;fontStyle=0;fontColor=#5AA9E6;labelBackgroundColor=none;" parent="30" vertex="1"><mxGeometry y="26" width="250" height="44" as="geometry"/></mxCell><mxCell id="32" value="+_nextPosition(): Point&#10;+transform() boolean&#10;+abstract dudeToTransformInto()&#10;+moveTo()&#10;+abstract _doAdjacency()" style="text;strokeColor=none;fillColor=none;align=left;verticalAlign=top;spacingLeft=4;spacingRight=4;overflow=hidden;rotatable=0;points=[[0,0.5],[1,0.5]];portConstraint=eastwest;fontColor=#5AA9E6;labelBackgroundColor=none;" parent="30" vertex="1"><mxGeometry y="70" width="250" height="92" as="geometry"/></mxCell><mxCell id="34" value="Plant &lt;&lt;Abstract&gt;&gt;" style="swimlane;fontStyle=1;align=center;verticalAlign=top;childLayout=stackLayout;horizontal=1;startSize=26;horizontalStack=0;resizeParent=1;resizeParentMax=0;resizeLast=0;collapsible=1;marginBottom=0;hachureGap=4;pointerEvents=0;sketch=0;fontColor=#5AA9E6;strokeColor=#FF6392;fillColor=#FFE45E;labelBackgroundColor=none;" parent="1" vertex="1"><mxGeometry x="2725" y="1120" width="250" height="162" as="geometry"/></mxCell><mxCell id="35" value="-health: int" style="text;strokeColor=#FF6392;fillColor=#FFE45E;align=left;verticalAlign=top;spacingLeft=4;spacingRight=4;overflow=hidden;rotatable=0;points=[[0,0.5],[1,0.5]];portConstraint=eastwest;fontStyle=0;fontColor=#5AA9E6;labelBackgroundColor=none;" parent="34" vertex="1"><mxGeometry y="26" width="250" height="44" as="geometry"/></mxCell><mxCell id="36" value="+killPlant()" style="text;strokeColor=none;fillColor=none;align=left;verticalAlign=top;spacingLeft=4;spacingRight=4;overflow=hidden;rotatable=0;points=[[0,0.5],[1,0.5]];portConstraint=eastwest;fontColor=#5AA9E6;labelBackgroundColor=none;" parent="34" vertex="1"><mxGeometry y="70" width="250" height="92" as="geometry"/></mxCell><mxCell id="38" value="Extends" style="endArrow=block;endSize=16;endFill=0;html=1;rounded=0;exitX=0.5;exitY=0;exitDx=0;exitDy=0;fontColor=#5AA9E6;labelBackgroundColor=none;strokeColor=#FF6392;entryX=0.615;entryY=1.018;entryDx=0;entryDy=0;entryPerimeter=0;" parent="1" source="59" target="21" edge="1"><mxGeometry width="160" relative="1" as="geometry"><mxPoint x="3482.5" y="1210" as="sourcePoint"/><mxPoint x="3210" y="1181.78" as="targetPoint"/></mxGeometry></mxCell><mxCell id="40" value="Extends" style="endArrow=block;endSize=16;endFill=0;html=1;rounded=0;exitX=0.5;exitY=0;exitDx=0;exitDy=0;entryX=0;entryY=0.25;entryDx=0;entryDy=0;fontColor=#5AA9E6;labelBackgroundColor=none;strokeColor=#FF6392;" parent="1" target="18" edge="1"><mxGeometry width="160" relative="1" as="geometry"><mxPoint x="2925" y="1131" as="sourcePoint"/><mxPoint x="2890" y="1071" as="targetPoint"/></mxGeometry></mxCell><mxCell id="41" value="Killable &lt;&lt;Interface&gt;&gt;" style="swimlane;fontStyle=1;align=center;verticalAlign=top;childLayout=stackLayout;horizontal=1;startSize=26;horizontalStack=0;resizeParent=1;resizeParentMax=0;resizeLast=0;collapsible=1;marginBottom=0;hachureGap=4;pointerEvents=0;sketch=0;fontColor=#5AA9E6;strokeColor=#FF6392;fillColor=#FFE45E;labelBackgroundColor=none;" parent="1" vertex="1"><mxGeometry x="2650" y="420" width="250" height="162" as="geometry"/></mxCell><mxCell id="42" value="" style="text;strokeColor=#FF6392;fillColor=#FFE45E;align=left;verticalAlign=top;spacingLeft=4;spacingRight=4;overflow=hidden;rotatable=0;points=[[0,0.5],[1,0.5]];portConstraint=eastwest;fontStyle=0;fontColor=#5AA9E6;labelBackgroundColor=none;" parent="41" vertex="1"><mxGeometry y="26" width="250" height="44" as="geometry"/></mxCell><mxCell id="43" value="+getHealth()&#10;+setHealth()" style="text;strokeColor=none;fillColor=none;align=left;verticalAlign=top;spacingLeft=4;spacingRight=4;overflow=hidden;rotatable=0;points=[[0,0.5],[1,0.5]];portConstraint=eastwest;fontColor=#5AA9E6;labelBackgroundColor=none;" parent="41" vertex="1"><mxGeometry y="70" width="250" height="92" as="geometry"/></mxCell><mxCell id="44" value="Extends" style="endArrow=block;endSize=16;endFill=0;html=1;rounded=0;entryX=0.995;entryY=0.798;entryDx=0;entryDy=0;entryPerimeter=0;exitX=0;exitY=0.5;exitDx=0;exitDy=0;fontColor=#5AA9E6;labelBackgroundColor=none;strokeColor=#FF6392;" parent="1" source="42" target="8I9pphBKhg92I5GMk5e_-88" edge="1"><mxGeometry width="160" relative="1" as="geometry"><mxPoint x="2561.25" y="529.1800000000001" as="sourcePoint"/><mxPoint x="2560" y="399.9959999999998" as="targetPoint"/></mxGeometry></mxCell><mxCell id="45" value="" style="endArrow=block;dashed=1;endFill=0;endSize=12;html=1;rounded=0;exitX=0.415;exitY=0.006;exitDx=0;exitDy=0;fontColor=#5AA9E6;labelBackgroundColor=none;strokeColor=#FF6392;exitPerimeter=0;" parent="1" source="34" target="43" edge="1"><mxGeometry width="160" relative="1" as="geometry"><mxPoint x="3090" y="1085.5" as="sourcePoint"/><mxPoint x="2783" y="1086.0319999999997" as="targetPoint"/><Array as="points"><mxPoint x="2940" y="780"/></Array></mxGeometry></mxCell><mxCell id="51" value="Extends" style="endArrow=block;endSize=16;endFill=0;html=1;rounded=0;exitX=0.5;exitY=0;exitDx=0;exitDy=0;fontColor=#5AA9E6;labelBackgroundColor=none;strokeColor=#FF6392;" parent="1" target="66" edge="1" source="30"><mxGeometry width="160" relative="1" as="geometry"><mxPoint x="3260" y="1610.22" as="sourcePoint"/><mxPoint x="3303.25" y="1376.692" as="targetPoint"/></mxGeometry></mxCell><mxCell id="g82B2V8gWefZs02d5Zxm-19" value="&#10;&#10;     " style="text;strokeColor=#FF6392;fillColor=#FFE45E;align=left;verticalAlign=top;spacingLeft=4;spacingRight=4;overflow=hidden;rotatable=0;points=[[0,0.5],[1,0.5]];portConstraint=eastwest;fontStyle=0;fontColor=#5AA9E6;labelBackgroundColor=none;" parent="1" vertex="1"><mxGeometry x="3330" y="3080" width="250" height="184" as="geometry"/></mxCell><mxCell id="59" value="Player &lt;&lt;Abstract&gt;&gt;" style="swimlane;fontStyle=1;align=center;verticalAlign=top;childLayout=stackLayout;horizontal=1;startSize=26;horizontalStack=0;resizeParent=1;resizeParentMax=0;resizeLast=0;collapsible=1;marginBottom=0;hachureGap=4;pointerEvents=0;sketch=0;fontColor=#5AA9E6;strokeColor=#FF6392;fillColor=#FFE45E;labelBackgroundColor=none;" parent="1" vertex="1"><mxGeometry x="3520" y="1470" width="250" height="162" as="geometry"/></mxCell><mxCell id="60" value="" style="text;strokeColor=#FF6392;fillColor=#FFE45E;align=left;verticalAlign=top;spacingLeft=4;spacingRight=4;overflow=hidden;rotatable=0;points=[[0,0.5],[1,0.5]];portConstraint=eastwest;fontStyle=0;fontColor=#5AA9E6;labelBackgroundColor=none;" parent="59" vertex="1"><mxGeometry y="26" width="250" height="44" as="geometry"/></mxCell><mxCell id="61" value="+_nextposition&#10;" style="text;strokeColor=none;fillColor=none;align=left;verticalAlign=top;spacingLeft=4;spacingRight=4;overflow=hidden;rotatable=0;points=[[0,0.5],[1,0.5]];portConstraint=eastwest;fontColor=#5AA9E6;labelBackgroundColor=none;" parent="59" vertex="1"><mxGeometry y="70" width="250" height="92" as="geometry"/></mxCell><mxCell id="63" value="TargetingEntity &lt;&lt;Interface&gt;&gt;" style="swimlane;fontStyle=1;align=center;verticalAlign=top;childLayout=stackLayout;horizontal=1;startSize=26;horizontalStack=0;resizeParent=1;resizeParentMax=0;resizeLast=0;collapsible=1;marginBottom=0;hachureGap=4;pointerEvents=0;sketch=0;fontColor=#5AA9E6;strokeColor=#FF6392;fillColor=#FFE45E;labelBackgroundColor=none;" parent="1" vertex="1"><mxGeometry x="3070" y="1250" width="250" height="150" as="geometry"/></mxCell><mxCell id="64" value="&#10;&#10;&#10;     " style="text;strokeColor=#FF6392;fillColor=#FFE45E;align=left;verticalAlign=top;spacingLeft=4;spacingRight=4;overflow=hidden;rotatable=0;points=[[0,0.5],[1,0.5]];portConstraint=eastwest;fontStyle=0;fontColor=#5AA9E6;labelBackgroundColor=none;" parent="63" vertex="1"><mxGeometry y="26" width="250" height="4" as="geometry"/></mxCell><mxCell id="65" value="" style="line;strokeWidth=1;fillColor=none;align=left;verticalAlign=middle;spacingTop=-1;spacingLeft=3;spacingRight=3;rotatable=0;labelPosition=right;points=[];portConstraint=eastwest;fontColor=#5AA9E6;labelBackgroundColor=none;strokeColor=#FF6392;" parent="63" vertex="1"><mxGeometry y="30" width="250" height="8" as="geometry"/></mxCell><mxCell id="66" value="+moveTo()&#10;+abstract _doAdjacency()" style="text;strokeColor=none;fillColor=none;align=left;verticalAlign=top;spacingLeft=4;spacingRight=4;overflow=hidden;rotatable=0;points=[[0,0.5],[1,0.5]];portConstraint=eastwest;fontColor=#5AA9E6;labelBackgroundColor=none;" parent="63" vertex="1"><mxGeometry y="38" width="250" height="112" as="geometry"/></mxCell><mxCell id="69" value="Zombie" style="swimlane;fontStyle=1;align=center;verticalAlign=top;childLayout=stackLayout;horizontal=1;startSize=26;horizontalStack=0;resizeParent=1;resizeParentMax=0;resizeLast=0;collapsible=1;marginBottom=0;hachureGap=4;pointerEvents=0;sketch=0;fontColor=#5AA9E6;strokeColor=#FF6392;fillColor=#FFE45E;labelBackgroundColor=none;" parent="1" vertex="1"><mxGeometry x="3430" y="1890" width="250" height="236" as="geometry"><mxRectangle x="1990" y="760" width="80" height="26" as="alternateBounds"/></mxGeometry></mxCell><mxCell id="70" value="" style="line;strokeWidth=1;fillColor=none;align=left;verticalAlign=middle;spacingTop=-1;spacingLeft=3;spacingRight=3;rotatable=0;labelPosition=right;points=[];portConstraint=eastwest;fontColor=#5AA9E6;labelBackgroundColor=none;strokeColor=#FF6392;" parent="69" vertex="1"><mxGeometry y="26" width="250" height="8" as="geometry"/></mxCell><mxCell id="71" value="+executeActivity()&#10;+_doAdjacency()                   &#10;" style="text;strokeColor=none;fillColor=none;align=left;verticalAlign=top;spacingLeft=4;spacingRight=4;overflow=hidden;rotatable=0;points=[[0,0.5],[1,0.5]];portConstraint=eastwest;fontColor=#5AA9E6;labelBackgroundColor=none;" parent="69" vertex="1"><mxGeometry y="34" width="250" height="202" as="geometry"/></mxCell><mxCell id="74" value="FamilyMember" style="swimlane;fontStyle=1;align=center;verticalAlign=top;childLayout=stackLayout;horizontal=1;startSize=26;horizontalStack=0;resizeParent=1;resizeParentMax=0;resizeLast=0;collapsible=1;marginBottom=0;hachureGap=4;pointerEvents=0;sketch=0;fontColor=#5AA9E6;labelBackgroundColor=none;fillColor=#FFE45E;strokeColor=#FF6392;" parent="1" vertex="1"><mxGeometry x="2970" y="1850" width="250" height="410" as="geometry"/></mxCell><mxCell id="79" value="" style="endArrow=block;dashed=1;endFill=0;endSize=12;html=1;rounded=0;exitX=0.392;exitY=0;exitDx=0;exitDy=0;fontColor=#5AA9E6;labelBackgroundColor=none;strokeColor=#FF6392;entryX=0;entryY=0.5;entryDx=0;entryDy=0;exitPerimeter=0;" parent="74" source="74" edge="1"><mxGeometry width="160" relative="1" as="geometry"><mxPoint x="22.5" y="172" as="sourcePoint"/><mxPoint x="227.5" y="-70" as="targetPoint"/></mxGeometry></mxCell><mxCell id="75" value="-resourceLimit&#10;-resourceCount" style="text;strokeColor=#FF6392;fillColor=#FFE45E;align=left;verticalAlign=top;spacingLeft=4;spacingRight=4;overflow=hidden;rotatable=0;points=[[0,0.5],[1,0.5]];portConstraint=eastwest;fontStyle=0;fontColor=#5AA9E6;labelBackgroundColor=none;" parent="74" vertex="1"><mxGeometry y="26" width="250" height="184" as="geometry"/></mxCell><mxCell id="76" value="" style="line;strokeWidth=1;fillColor=none;align=left;verticalAlign=middle;spacingTop=-1;spacingLeft=3;spacingRight=3;rotatable=0;labelPosition=right;points=[];portConstraint=eastwest;fontColor=#5AA9E6;labelBackgroundColor=none;strokeColor=#FF6392;" parent="74" vertex="1"><mxGeometry y="210" width="250" height="8" as="geometry"/></mxCell><mxCell id="77" value="+executeActivity()&#10;+transform(): boolean &#10;+_doAdjacency()   &#10;+_dudeToTransformInto()    " style="text;strokeColor=none;fillColor=none;align=left;verticalAlign=top;spacingLeft=4;spacingRight=4;overflow=hidden;rotatable=0;points=[[0,0.5],[1,0.5]];portConstraint=eastwest;fontColor=#5AA9E6;labelBackgroundColor=none;" parent="74" vertex="1"><mxGeometry y="218" width="250" height="192" as="geometry"/></mxCell><mxCell id="80" value="" style="endArrow=block;dashed=1;endFill=0;endSize=12;html=1;rounded=0;exitX=0.392;exitY=0;exitDx=0;exitDy=0;fontColor=#5AA9E6;labelBackgroundColor=none;strokeColor=#FF6392;entryX=0.936;entryY=1;entryDx=0;entryDy=0;exitPerimeter=0;entryPerimeter=0;" parent="1" target="32" edge="1"><mxGeometry width="160" relative="1" as="geometry"><mxPoint x="3550.25" y="1890" as="sourcePoint"/><mxPoint x="3679.75" y="1820" as="targetPoint"/></mxGeometry></mxCell><mxCell id="81" value="StandardZombie" style="swimlane;fontStyle=1;align=center;verticalAlign=top;childLayout=stackLayout;horizontal=1;startSize=26;horizontalStack=0;resizeParent=1;resizeParentMax=0;resizeLast=0;collapsible=1;marginBottom=0;hachureGap=4;pointerEvents=0;sketch=0;fontColor=#5AA9E6;strokeColor=#FF6392;fillColor=#FFE45E;labelBackgroundColor=none;" parent="1" vertex="1"><mxGeometry x="3430" y="2200" width="250" height="236" as="geometry"><mxRectangle x="1990" y="760" width="80" height="26" as="alternateBounds"/></mxGeometry></mxCell><mxCell id="82" value="" style="line;strokeWidth=1;fillColor=none;align=left;verticalAlign=middle;spacingTop=-1;spacingLeft=3;spacingRight=3;rotatable=0;labelPosition=right;points=[];portConstraint=eastwest;fontColor=#5AA9E6;labelBackgroundColor=none;strokeColor=#FF6392;" parent="81" vertex="1"><mxGeometry y="26" width="250" height="8" as="geometry"/></mxCell><mxCell id="83" value="+executeActivity()&#10;+_doAdjacency()                   &#10;" style="text;strokeColor=none;fillColor=none;align=left;verticalAlign=top;spacingLeft=4;spacingRight=4;overflow=hidden;rotatable=0;points=[[0,0.5],[1,0.5]];portConstraint=eastwest;fontColor=#5AA9E6;labelBackgroundColor=none;" parent="81" vertex="1"><mxGeometry y="34" width="250" height="202" as="geometry"/></mxCell><mxCell id="84" value="RockDrillingZombie" style="swimlane;fontStyle=1;align=center;verticalAlign=top;childLayout=stackLayout;horizontal=1;startSize=26;horizontalStack=0;resizeParent=1;resizeParentMax=0;resizeLast=0;collapsible=1;marginBottom=0;hachureGap=4;pointerEvents=0;sketch=0;fontColor=#5AA9E6;strokeColor=#FF6392;fillColor=#FFE45E;labelBackgroundColor=none;" parent="1" vertex="1"><mxGeometry x="3760" y="2200" width="250" height="236" as="geometry"><mxRectangle x="1990" y="760" width="80" height="26" as="alternateBounds"/></mxGeometry></mxCell><mxCell id="85" value="" style="line;strokeWidth=1;fillColor=none;align=left;verticalAlign=middle;spacingTop=-1;spacingLeft=3;spacingRight=3;rotatable=0;labelPosition=right;points=[];portConstraint=eastwest;fontColor=#5AA9E6;labelBackgroundColor=none;strokeColor=#FF6392;" parent="84" vertex="1"><mxGeometry y="26" width="250" height="8" as="geometry"/></mxCell><mxCell id="86" value="+executeActivity()&#10;+_doAdjacency()                   &#10;" style="text;strokeColor=none;fillColor=none;align=left;verticalAlign=top;spacingLeft=4;spacingRight=4;overflow=hidden;rotatable=0;points=[[0,0.5],[1,0.5]];portConstraint=eastwest;fontColor=#5AA9E6;labelBackgroundColor=none;" parent="84" vertex="1"><mxGeometry y="34" width="250" height="202" as="geometry"/></mxCell><mxCell id="87" value="" style="endArrow=block;dashed=1;endFill=0;endSize=12;html=1;rounded=0;exitX=0.152;exitY=0;exitDx=0;exitDy=0;fontColor=#5AA9E6;labelBackgroundColor=none;strokeColor=#FF6392;entryX=0.328;entryY=1.02;entryDx=0;entryDy=0;exitPerimeter=0;entryPerimeter=0;" parent="1" source="81" target="71" edge="1"><mxGeometry width="160" relative="1" as="geometry"><mxPoint x="3436.25" y="2210" as="sourcePoint"/><mxPoint x="3240" y="2102" as="targetPoint"/></mxGeometry></mxCell><mxCell id="88" value="" style="endArrow=block;dashed=1;endFill=0;endSize=12;html=1;rounded=0;exitX=0.392;exitY=0;exitDx=0;exitDy=0;fontColor=#5AA9E6;labelBackgroundColor=none;strokeColor=#FF6392;entryX=1;entryY=0.752;entryDx=0;entryDy=0;exitPerimeter=0;entryPerimeter=0;" parent="1" target="71" edge="1"><mxGeometry width="160" relative="1" as="geometry"><mxPoint x="3896.25" y="2200" as="sourcePoint"/><mxPoint x="3700" y="2092" as="targetPoint"/></mxGeometry></mxCell><mxCell id="89" value="" style="endArrow=block;dashed=1;endFill=0;endSize=12;html=1;rounded=0;exitX=0.5;exitY=0;exitDx=0;exitDy=0;fontColor=#5AA9E6;labelBackgroundColor=none;strokeColor=#FF6392;" edge="1" parent="1" source="59"><mxGeometry width="160" relative="1" as="geometry"><mxPoint x="3420" y="1227.5" as="sourcePoint"/><mxPoint x="2859.996557377049" y="581.03" as="targetPoint"/><Array as="points"><mxPoint x="3440" y="1220"/><mxPoint x="3060" y="1200"/></Array></mxGeometry></mxCell><mxCell id="91" value="Extends" style="endArrow=block;endSize=16;endFill=0;html=1;rounded=0;fontColor=#5AA9E6;labelBackgroundColor=none;strokeColor=#FF6392;entryX=0.615;entryY=1.018;entryDx=0;entryDy=0;entryPerimeter=0;" edge="1" parent="1"><mxGeometry width="160" relative="1" as="geometry"><mxPoint x="3170" y="1240" as="sourcePoint"/><mxPoint x="3141" y="1155.6560000000004" as="targetPoint"/></mxGeometry></mxCell><mxCell id="92" value="" style="endArrow=block;dashed=1;endFill=0;endSize=12;html=1;rounded=0;exitX=0.75;exitY=0;exitDx=0;exitDy=0;fontColor=#5AA9E6;labelBackgroundColor=none;strokeColor=#FF6392;" edge="1" parent="1" source="30"><mxGeometry width="160" relative="1" as="geometry"><mxPoint x="3655" y="1480" as="sourcePoint"/><mxPoint x="2869.9965573770496" y="591.0299999999997" as="targetPoint"/><Array as="points"><mxPoint x="3030" y="1430"/><mxPoint x="3030" y="1220"/></Array></mxGeometry></mxCell></root></mxGraphModel></diagram></mxfile>